<svg width="26" height="26" viewBox="0 0 26 26" fill="none" xmlns="http://www.w3.org/2000/svg">
<g id="Clip path group">
<mask id="mask0_86_5070" style="mask-type:luminance" maskUnits="userSpaceOnUse" x="0" y="0" width="26" height="26">
<g id="clip0_82_563">
<path id="Vector" d="M25.9736 0H0V25.3866H25.9736V0Z" fill="white"/>
</g>
</mask>
<g mask="url(#mask0_86_5070)">
<g id="Group">
<path id="Vector_2" d="M20.9421 21.687C21.0418 22.1595 21.0242 22.7172 20.6695 23.0459C18.8105 24.7658 16.0543 25.2531 13.48 25.3646V25.3881C13.3686 25.3866 13.2528 25.3822 13.1399 25.3778C13.0256 25.3807 12.9098 25.3866 12.7968 25.3881V25.3646C10.2269 25.2531 7.47075 24.7658 5.61037 23.0459C5.25559 22.7172 5.238 22.161 5.33769 21.687C5.43738 21.2144 5.62797 20.7478 5.59718 20.2635C5.57372 19.8746 5.4066 19.5078 5.3113 19.1306C5.21601 18.7505 5.20575 18.3102 5.45644 18.0094C7.99706 18.8371 10.5978 19.543 13.1413 20.3692C15.682 19.543 18.2828 18.8385 20.8248 18.0094C20.9201 18.1224 20.9773 18.2574 21.0051 18.4027C21.055 18.6361 21.0286 18.8958 20.9685 19.1306C20.8732 19.5078 20.7075 19.8746 20.6826 20.2635C20.6606 20.6113 20.7544 20.9503 20.8439 21.2908C20.8805 21.4229 20.9142 21.5535 20.9421 21.687Z" fill="white"/>
<path id="Vector_3" d="M13.055 21.6987C18.7688 21.6987 23.4008 16.8413 23.4008 10.8493C23.4008 4.85742 18.7688 0 13.055 0C7.3412 0 2.70923 4.85742 2.70923 10.8493C2.70923 16.8413 7.3412 21.6987 13.055 21.6987Z" fill="white"/>
<path id="Vector_4" d="M2.19025 7.9187H1.96888C0.881497 7.9187 0 8.80106 0 9.88957V13.6273C0 14.7158 0.881497 15.5982 1.96888 15.5982H2.19025C3.27763 15.5982 4.15912 14.7158 4.15912 13.6273V9.88957C4.15912 8.80106 3.27763 7.9187 2.19025 7.9187Z" fill="white"/>
<path id="Vector_5" d="M24.0046 7.9187H23.7833C22.6959 7.9187 21.8145 8.80106 21.8145 9.88957V13.6273C21.8145 14.7158 22.6959 15.5982 23.7833 15.5982H24.0046C25.0921 15.5982 25.9736 14.7158 25.9736 13.6273V9.88957C25.9736 8.80106 25.0921 7.9187 24.0046 7.9187Z" fill="white"/>
<path id="Vector_6" d="M5.6853 8.36781C8.59535 7.44769 14.8509 6.04623 20.4966 8.62761C21.3777 9.02972 21.8673 9.98501 21.6768 10.9346L20.9086 14.7721C20.4746 16.9367 19.0423 18.7682 17.0441 19.7074C14.565 20.8726 11.696 20.874 9.2155 19.7074C6.73937 18.5436 5.02119 16.2044 4.64881 13.4924L4.25592 10.6337C4.11811 9.62991 4.71918 8.67017 5.6853 8.36494V8.36781Z" fill="url(#paint0_linear_86_5070)"/>
<path id="Vector_7" d="M3.02892 8.10807C3.02892 8.10807 1.93526 10.9565 2.94976 13.5746C2.94976 13.5746 1.82531 11.9353 1.96898 7.91875C1.96898 7.91875 2.52314 7.8322 3.02892 8.10807Z" fill="url(#paint1_linear_86_5070)"/>
<path id="Vector_8" d="M23.0679 8.04346C23.0679 8.04346 23.6426 11.1414 23.2247 12.9875C23.2247 12.9875 24.1029 10.9168 24.0677 7.92016C24.0677 7.92016 23.4652 7.84825 23.0679 8.04195V8.04346Z" fill="url(#paint2_linear_86_5070)"/>
<path id="Vector_9" d="M5.27635 18.1223C5.07698 18.925 5.51532 19.807 5.51532 19.807C7.53698 20.8122 9.49116 21.0602 10.9338 21.2642C7.33029 20.5862 5.27489 18.1223 5.27489 18.1223H5.27635Z" fill="url(#paint3_linear_86_5070)"/>
<path id="Vector_10" d="M20.6828 20.2635C20.6608 20.6113 20.7547 20.9504 20.8441 21.2908C16.4798 23.2279 14.0476 23.0548 14.0476 23.0548C19.5393 21.7252 19.9351 20.0581 19.9351 20.0581C17.7098 21.4082 16.4431 21.1573 16.4431 21.1573C19.0878 20.648 20.8295 18.1209 20.8881 18.0505C21.1109 18.4409 21.0288 18.8958 20.9687 19.1306C20.8734 19.5078 20.7078 19.8746 20.6828 20.2635Z" fill="url(#paint4_linear_86_5070)"/>
<path id="Vector_11" d="M0.996878 11.046C1.36365 11.046 1.66098 10.7484 1.66098 10.3812C1.66098 10.0141 1.36365 9.71643 0.996878 9.71643C0.630097 9.71643 0.332764 10.0141 0.332764 10.3812C0.332764 10.7484 0.630097 11.046 0.996878 11.046Z" fill="url(#paint5_linear_86_5070)"/>
<path id="Vector_12" d="M0.996878 14.0955C1.36365 14.0955 1.66098 13.7979 1.66098 13.4308C1.66098 13.0636 1.36365 12.766 0.996878 12.766C0.630097 12.766 0.332764 13.0636 0.332764 13.4308C0.332764 13.7979 0.630097 14.0955 0.996878 14.0955Z" fill="url(#paint6_linear_86_5070)"/>
<path id="Vector_13" d="M24.858 11.046C25.2248 11.046 25.5221 10.7484 25.5221 10.3812C25.5221 10.0141 25.2248 9.71643 24.858 9.71643C24.4912 9.71643 24.1938 10.0141 24.1938 10.3812C24.1938 10.7484 24.4912 11.046 24.858 11.046Z" fill="url(#paint7_linear_86_5070)"/>
<path id="Vector_14" d="M24.858 14.0955C25.2248 14.0955 25.5221 13.7979 25.5221 13.4308C25.5221 13.0636 25.2248 12.766 24.858 12.766C24.4912 12.766 24.1938 13.0636 24.1938 13.4308C24.1938 13.7979 24.4912 14.0955 24.858 14.0955Z" fill="url(#paint8_linear_86_5070)"/>
<path id="Vector_15" d="M4.91992 6.48927C4.91992 6.48927 12.5448 2.55046 21.291 6.48927C21.291 6.48927 18.7094 4.00183 13.3555 4.00183C8.00149 4.00183 4.91992 6.48927 4.91992 6.48927Z" fill="url(#paint9_linear_86_5070)"/>
<path id="Vector_16" d="M7.94727 4.18095C7.94727 4.18095 12.7529 1.69938 18.2652 4.18095C18.2652 4.18095 16.6378 2.61365 13.2645 2.61365C9.89119 2.61365 7.9487 4.18095 7.9487 4.18095H7.94727Z" fill="url(#paint10_linear_86_5070)"/>
<g id="Mask group">
<mask id="mask1_86_5070" style="mask-type:luminance" maskUnits="userSpaceOnUse" x="4" y="7" width="18" height="14">
<g id="Group_2">
<path id="Vector_17" d="M5.6853 8.36781C8.59535 7.44769 14.8509 6.04623 20.4966 8.62761C21.3777 9.02972 21.8673 9.98501 21.6768 10.9346L20.9086 14.7721C20.4746 16.9367 19.0423 18.7682 17.0441 19.7074C14.565 20.8726 11.696 20.874 9.2155 19.7074C6.73937 18.5436 5.02119 16.2044 4.64881 13.4924L4.25592 10.6337C4.11811 9.62991 4.71918 8.67017 5.6853 8.36494V8.36781Z" fill="white"/>
</g>
</mask>
<g mask="url(#mask1_86_5070)">
<g id="Group_3">
<path id="Vector_18" d="M15.024 15.9313C15.0328 15.9562 15.0196 15.9841 14.9947 15.9929C14.9698 16.0017 14.9419 15.9885 14.9332 15.9636C14.9243 15.9386 14.9375 15.9107 14.9624 15.9019C14.9874 15.8931 15.0152 15.9063 15.024 15.9313Z" fill="white"/>
<path id="Vector_19" d="M13.0609 16.2585C13.0697 16.2834 13.0565 16.3114 13.0316 16.3201C13.0067 16.3289 12.9788 16.3157 12.97 16.2908C12.9612 16.2659 12.9744 16.2379 12.9993 16.2292C13.0243 16.2204 13.0521 16.2336 13.0609 16.2585Z" fill="white"/>
<path id="Vector_20" d="M13.4201 16.128C13.4289 16.1529 13.4157 16.1809 13.3907 16.1897C13.3658 16.1984 13.338 16.1852 13.3291 16.1603C13.3203 16.1354 13.3336 16.1074 13.3585 16.0987C13.3834 16.0899 13.4112 16.1031 13.4201 16.128Z" fill="white"/>
<path id="Vector_21" d="M13.7675 16.0033C13.7763 16.0282 13.7631 16.0561 13.7381 16.0649C13.7132 16.0737 13.6854 16.0605 13.6766 16.0355C13.6677 16.0106 13.681 15.9827 13.7059 15.9739C13.7308 15.9651 13.7586 15.9783 13.7675 16.0033Z" fill="white"/>
<path id="Vector_22" d="M13.5345 15.7994C13.5433 15.8244 13.5301 15.8522 13.5052 15.861C13.4803 15.8699 13.4524 15.8567 13.4437 15.8317C13.4348 15.8067 13.448 15.7789 13.473 15.77C13.4979 15.7613 13.5257 15.7745 13.5345 15.7994Z" fill="white"/>
<path id="Vector_23" d="M13.464 15.6026C13.4728 15.6276 13.4596 15.6555 13.4346 15.6643C13.4097 15.6731 13.3819 15.6599 13.3731 15.6349C13.3643 15.61 13.3775 15.5821 13.4024 15.5733C13.4273 15.5645 13.4552 15.5777 13.464 15.6026Z" fill="white"/>
<path id="Vector_24" d="M13.9566 15.5952C13.9654 15.6201 13.9522 15.648 13.9273 15.6569C13.9024 15.6656 13.8745 15.6524 13.8658 15.6275C13.857 15.6025 13.8701 15.5747 13.895 15.5659C13.92 15.557 13.9479 15.5702 13.9566 15.5952Z" fill="white"/>
<path id="Vector_25" d="M14.3993 15.3853C14.4081 15.4103 14.3949 15.4382 14.37 15.447C14.3451 15.4558 14.3172 15.4426 14.3084 15.4176C14.2996 15.3927 14.3128 15.3648 14.3377 15.356C14.3626 15.3472 14.3905 15.3604 14.3993 15.3853Z" fill="white"/>
<path id="Vector_26" d="M12.6769 17.5912C12.6856 17.6161 12.6725 17.644 12.6476 17.6528C12.6226 17.6616 12.5948 17.6484 12.586 17.6235C12.5772 17.5985 12.5904 17.5706 12.6153 17.5618C12.6403 17.553 12.6681 17.5662 12.6769 17.5912Z" fill="white"/>
<path id="Vector_27" d="M12.5155 18.0607C12.5243 18.0856 12.5111 18.1135 12.4862 18.1223C12.4613 18.1311 12.4334 18.1179 12.4246 18.093C12.4158 18.068 12.429 18.0401 12.4539 18.0313C12.4789 18.0225 12.5067 18.0357 12.5155 18.0607Z" fill="white"/>
<path id="Vector_28" d="M12.4584 17.619C12.4672 17.6439 12.454 17.6719 12.4291 17.6806C12.4041 17.6894 12.3763 17.6762 12.3675 17.6513C12.3587 17.6264 12.3719 17.5984 12.3968 17.5896C12.4218 17.5809 12.4496 17.5941 12.4584 17.619Z" fill="white"/>
<path id="Vector_29" d="M12.8073 17.233C12.8161 17.2579 12.8029 17.2858 12.7779 17.2946C12.753 17.3034 12.7252 17.2902 12.7164 17.2652C12.7075 17.2403 12.7207 17.2124 12.7457 17.2037C12.7706 17.1948 12.7985 17.208 12.8073 17.233Z" fill="white"/>
<path id="Vector_30" d="M13.0272 16.4493C13.036 16.4742 13.0228 16.5022 12.9979 16.511C12.973 16.5197 12.9451 16.5065 12.9363 16.4816C12.9275 16.4567 12.9407 16.4287 12.9657 16.42C12.9905 16.4112 13.0184 16.4244 13.0272 16.4493Z" fill="white"/>
<path id="Vector_31" d="M18.2667 15.6936C18.428 15.6936 18.428 15.4426 18.2667 15.4426C18.1054 15.4426 18.1054 15.6936 18.2667 15.6936Z" fill="white"/>
<path id="Vector_32" d="M13.2384 16.8765C13.3997 16.8765 13.3997 16.6255 13.2384 16.6255C13.0771 16.6255 13.0771 16.8765 13.2384 16.8765Z" fill="white"/>
<path id="Vector_33" d="M12.517 18.7123C12.6782 18.7123 12.6782 18.4613 12.517 18.4613C12.3557 18.4613 12.3557 18.7123 12.517 18.7123Z" fill="white"/>
<path id="Vector_34" d="M16.0149 14.9041C16.0545 14.9041 16.056 14.8411 16.0149 14.8411C15.9739 14.8411 15.9739 14.9041 16.0149 14.9041Z" fill="white"/>
<path id="Vector_35" d="M15.7393 14.8234C15.7789 14.8234 15.7803 14.7603 15.7393 14.7603C15.6982 14.7603 15.6982 14.8234 15.7393 14.8234Z" fill="white"/>
<path id="Vector_36" d="M15.8128 15.089C15.8524 15.089 15.8538 15.0259 15.8128 15.0259C15.7717 15.0259 15.7717 15.089 15.8128 15.089Z" fill="white"/>
<path id="Vector_37" d="M15.4902 15.0699C15.5298 15.0699 15.5313 15.0068 15.4902 15.0068C15.4492 15.0068 15.4492 15.0699 15.4902 15.0699Z" fill="white"/>
<path id="Vector_38" d="M15.2205 15.2577C15.2601 15.2577 15.2615 15.1946 15.2205 15.1946C15.1794 15.1946 15.1794 15.2577 15.2205 15.2577Z" fill="white"/>
<path id="Vector_39" d="M14.8965 15.4192C14.9361 15.4192 14.9376 15.3561 14.8965 15.3561C14.8555 15.3561 14.8555 15.4192 14.8965 15.4192Z" fill="white"/>
<path id="Vector_40" d="M16.471 14.9202C16.5106 14.9202 16.512 14.8571 16.471 14.8571C16.4299 14.8571 16.4299 14.9202 16.471 14.9202Z" fill="white"/>
<path id="Vector_41" d="M16.8667 14.957C16.9063 14.957 16.9078 14.8938 16.8667 14.8938C16.8257 14.8938 16.8257 14.957 16.8667 14.957Z" fill="white"/>
<path id="Vector_42" d="M17.1658 15.1638C17.2054 15.1638 17.2068 15.1007 17.1658 15.1007C17.1247 15.1007 17.1247 15.1638 17.1658 15.1638Z" fill="white"/>
<path id="Vector_43" d="M17.531 15.3033C17.5706 15.3033 17.5721 15.2401 17.531 15.2401C17.49 15.2401 17.49 15.3033 17.531 15.3033Z" fill="white"/>
<path id="Vector_44" d="M16.7495 15.1345C16.7891 15.1345 16.7906 15.0714 16.7495 15.0714C16.7085 15.0714 16.7085 15.1345 16.7495 15.1345Z" fill="white"/>
<path id="Vector_45" d="M16.654 14.7412C16.6936 14.7412 16.6951 14.6781 16.654 14.6781C16.613 14.6781 16.613 14.7412 16.654 14.7412Z" fill="white"/>
<path id="Vector_46" d="M16.2862 14.7838C16.3258 14.7838 16.3273 14.7207 16.2862 14.7207C16.2451 14.7207 16.2451 14.7838 16.2862 14.7838Z" fill="white"/>
<path id="Vector_47" d="M16.418 15.2754C16.4576 15.2754 16.4591 15.2123 16.418 15.2123C16.3769 15.2123 16.3769 15.2754 16.418 15.2754Z" fill="white"/>
<path id="Vector_48" d="M17.9282 15.723C17.9678 15.723 17.9693 15.6599 17.9282 15.6599C17.8872 15.6599 17.8872 15.723 17.9282 15.723Z" fill="white"/>
<path id="Vector_49" d="M18.1363 16.6153C18.1759 16.6153 18.1773 16.5521 18.1363 16.5521C18.0952 16.5521 18.0952 16.6153 18.1363 16.6153Z" fill="white"/>
<path id="Vector_50" d="M17.9078 17.1024C17.9473 17.1024 17.9488 17.0393 17.9078 17.0393C17.8667 17.0393 17.8667 17.1024 17.9078 17.1024Z" fill="white"/>
<path id="Vector_51" d="M17.6556 17.4634C17.6951 17.4634 17.6966 17.4003 17.6556 17.4003C17.6145 17.4003 17.6145 17.4634 17.6556 17.4634Z" fill="white"/>
<path id="Vector_52" d="M17.396 17.8055C17.4356 17.8055 17.4371 17.7423 17.396 17.7423C17.355 17.7423 17.355 17.8055 17.396 17.8055Z" fill="white"/>
<path id="Vector_53" d="M17.05 18.1546C17.0896 18.1546 17.0911 18.0916 17.05 18.0916C17.009 18.0916 17.009 18.1546 17.05 18.1546Z" fill="white"/>
<path id="Vector_54" d="M16.6102 18.5597C16.6497 18.5597 16.6512 18.4966 16.6102 18.4966C16.5691 18.4966 16.5691 18.5597 16.6102 18.5597Z" fill="white"/>
<path id="Vector_55" d="M16.1528 18.9735C16.1924 18.9735 16.1939 18.9104 16.1528 18.9104C16.1118 18.9104 16.1118 18.9735 16.1528 18.9735Z" fill="white"/>
<path id="Vector_56" d="M15.2498 19.5914C15.2893 19.5914 15.2908 19.5283 15.2498 19.5283C15.2087 19.5283 15.2087 19.5914 15.2498 19.5914Z" fill="white"/>
<path id="Vector_57" d="M14.4478 19.9245C14.4873 19.9245 14.4888 19.8615 14.4478 19.8615C14.4067 19.8615 14.4067 19.9245 14.4478 19.9245Z" fill="white"/>
<path id="Vector_58" d="M15.5108 19.3169C15.5504 19.3169 15.5518 19.2538 15.5108 19.2538C15.4697 19.2538 15.4697 19.3169 15.5108 19.3169Z" fill="white"/>
<path id="Vector_59" d="M15.6206 19.4959C15.6206 19.4959 15.6162 19.4827 15.6132 19.4754C15.6132 19.471 15.6103 19.468 15.6074 19.4651C15.6044 19.4622 15.6015 19.4593 15.5986 19.4577C15.5956 19.4548 15.5912 19.4548 15.5869 19.4534C15.5824 19.4534 15.578 19.4534 15.5737 19.4534L15.5663 19.4563C15.5663 19.4563 15.5575 19.4622 15.5546 19.468L15.5517 19.4754C15.5517 19.4754 15.5502 19.4871 15.5517 19.4915C15.5546 19.4989 15.556 19.5048 15.559 19.5121C15.559 19.5165 15.5619 19.5194 15.5649 19.5223C15.5678 19.5253 15.5707 19.5282 15.5737 19.5297C15.5766 19.5326 15.581 19.5326 15.5854 19.5341C15.5898 19.5341 15.5942 19.5341 15.5986 19.5341L15.6059 19.5312C15.6059 19.5312 15.6147 19.5253 15.6176 19.5194L15.6206 19.5121C15.6206 19.5121 15.622 19.5003 15.6206 19.4959Z" fill="white"/>
<path id="Vector_60" d="M15.8274 19.3829C15.867 19.3829 15.8685 19.3198 15.8274 19.3198C15.7864 19.3198 15.7864 19.3829 15.8274 19.3829Z" fill="white"/>
<path id="Vector_61" d="M17.1043 17.6175C17.1439 17.6175 17.1453 17.5544 17.1043 17.5544C17.0632 17.5544 17.0632 17.6175 17.1043 17.6175Z" fill="white"/>
<path id="Vector_62" d="M17.3916 17.3563C17.4312 17.3563 17.4327 17.2932 17.3916 17.2932C17.3506 17.2932 17.3506 17.3563 17.3916 17.3563Z" fill="white"/>
<path id="Vector_63" d="M17.7801 17.622C17.8197 17.622 17.8211 17.5588 17.7801 17.5588C17.739 17.5588 17.739 17.622 17.7801 17.622Z" fill="white"/>
<path id="Vector_64" d="M18.1919 17.2697C18.2315 17.2697 18.233 17.2067 18.1919 17.2067C18.1509 17.2067 18.1509 17.2697 18.1919 17.2697Z" fill="white"/>
<path id="Vector_65" d="M18.5527 16.9601C18.5923 16.9601 18.5938 16.897 18.5527 16.897C18.5117 16.897 18.5117 16.9601 18.5527 16.9601Z" fill="white"/>
<path id="Vector_66" d="M18.5498 16.511C18.5894 16.511 18.5909 16.4479 18.5498 16.4479C18.5088 16.4479 18.5088 16.511 18.5498 16.511Z" fill="white"/>
<path id="Vector_67" d="M17.8268 16.285C17.9075 16.285 17.9075 16.1603 17.8268 16.1603C17.7462 16.1603 17.7462 16.285 17.8268 16.285Z" fill="white"/>
<path id="Vector_68" d="M18.4149 16.2307C18.4956 16.2307 18.4956 16.106 18.4149 16.106C18.3343 16.106 18.3343 16.2307 18.4149 16.2307Z" fill="white"/>
<path id="Vector_69" d="M17.6467 16.8456C17.7273 16.8456 17.7273 16.7208 17.6467 16.7208C17.566 16.7208 17.566 16.8456 17.6467 16.8456Z" fill="white"/>
<path id="Vector_70" d="M17.588 15.8082C17.6687 15.8082 17.6687 15.6835 17.588 15.6835C17.5074 15.6835 17.5074 15.8082 17.588 15.8082Z" fill="white"/>
<path id="Vector_71" d="M18.1305 15.2534C18.2112 15.2534 18.2112 15.1287 18.1305 15.1287C18.0499 15.1287 18.0499 15.2534 18.1305 15.2534Z" fill="white"/>
<path id="Vector_72" d="M17.3842 14.8014C17.4648 14.8014 17.4648 14.6766 17.3842 14.6766C17.3036 14.6766 17.3036 14.8014 17.3842 14.8014Z" fill="white"/>
<path id="Vector_73" d="M16.7728 15.5395C16.8535 15.5395 16.8535 15.4148 16.7728 15.4148C16.6923 15.4148 16.6923 15.5395 16.7728 15.5395Z" fill="white"/>
<path id="Vector_74" d="M16.7728 14.7293C16.8535 14.7293 16.8535 14.6046 16.7728 14.6046C16.6923 14.6046 16.6923 14.7293 16.7728 14.7293Z" fill="white"/>
<path id="Vector_75" d="M16.0883 15.4486C16.1689 15.4486 16.1689 15.3239 16.0883 15.3239C16.0077 15.3239 16.0077 15.4486 16.0883 15.4486Z" fill="white"/>
<path id="Vector_76" d="M15.5824 14.7309C15.6631 14.7309 15.6631 14.6062 15.5824 14.6062C15.5018 14.6062 15.5018 14.7309 15.5824 14.7309Z" fill="white"/>
<path id="Vector_77" d="M15.1237 14.8968C15.2043 14.8968 15.2043 14.772 15.1237 14.772C15.0431 14.772 15.0431 14.8968 15.1237 14.8968Z" fill="white"/>
<path id="Vector_78" d="M15.631 15.3664C15.7116 15.3664 15.7116 15.2416 15.631 15.2416C15.5504 15.2416 15.5504 15.3664 15.631 15.3664Z" fill="white"/>
<path id="Vector_79" d="M14.6603 15.9181C14.7409 15.9181 14.7409 15.7933 14.6603 15.7933C14.5797 15.7933 14.5797 15.9181 14.6603 15.9181Z" fill="white"/>
<path id="Vector_80" d="M14.5578 15.0097C14.6385 15.0097 14.6385 14.885 14.5578 14.885C14.4772 14.885 14.4772 15.0097 14.5578 15.0097Z" fill="white"/>
<path id="Vector_81" d="M14.1018 15.4896C14.1823 15.4896 14.1823 15.3649 14.1018 15.3649C14.0211 15.3649 14.0211 15.4896 14.1018 15.4896Z" fill="white"/>
<path id="Vector_82" d="M14.0988 16.2336C14.1795 16.2336 14.1795 16.1089 14.0988 16.1089C14.0182 16.1089 14.0182 16.2336 14.0988 16.2336Z" fill="white"/>
<path id="Vector_83" d="M13.8189 19.7057C13.9802 19.7057 13.9802 19.4548 13.8189 19.4548C13.6577 19.4548 13.6577 19.7057 13.8189 19.7057Z" fill="white"/>
<path id="Vector_84" d="M13.681 18.9178C13.7205 18.9178 13.722 18.8547 13.681 18.8547C13.6399 18.8547 13.6399 18.9178 13.681 18.9178Z" fill="white"/>
<path id="Vector_85" d="M13.8467 18.2514C13.8863 18.2514 13.8878 18.1884 13.8467 18.1884C13.8057 18.1884 13.8057 18.2514 13.8467 18.2514Z" fill="white"/>
<path id="Vector_86" d="M14.3541 17.6629C14.3936 17.6629 14.3951 17.5999 14.3541 17.5999C14.313 17.5999 14.313 17.6629 14.3541 17.6629Z" fill="white"/>
<path id="Vector_87" d="M14.9698 17.0584C15.0093 17.0584 15.0108 16.9954 14.9698 16.9954C14.9287 16.9954 14.9287 17.0584 14.9698 17.0584Z" fill="white"/>
<path id="Vector_88" d="M15.8113 16.7106C15.8509 16.7106 15.8523 16.6475 15.8113 16.6475C15.7702 16.6475 15.7702 16.7106 15.8113 16.7106Z" fill="white"/>
<path id="Vector_89" d="M16.3125 16.7326C16.3521 16.7326 16.3536 16.6696 16.3125 16.6696C16.2715 16.6696 16.2715 16.7326 16.3125 16.7326Z" fill="white"/>
<path id="Vector_90" d="M15.8714 17.0041C15.911 17.0041 15.9124 16.941 15.8714 16.941C15.8303 16.941 15.8303 17.0041 15.8714 17.0041Z" fill="white"/>
<path id="Vector_91" d="M15.5811 16.8838C15.6207 16.8838 15.6221 16.8207 15.5811 16.8207C15.54 16.8207 15.54 16.8838 15.5811 16.8838Z" fill="white"/>
<path id="Vector_92" d="M15.5665 17.1582C15.606 17.1582 15.6075 17.0951 15.5665 17.0951C15.5254 17.0951 15.5254 17.1582 15.5665 17.1582Z" fill="white"/>
<path id="Vector_93" d="M15.2103 16.7914C15.2498 16.7914 15.2513 16.7283 15.2103 16.7283C15.1692 16.7283 15.1692 16.7914 15.2103 16.7914Z" fill="white"/>
<path id="Vector_94" d="M14.6853 16.9586C14.7249 16.9586 14.7264 16.8955 14.6853 16.8955C14.6443 16.8955 14.6443 16.9586 14.6853 16.9586Z" fill="white"/>
<path id="Vector_95" d="M14.8699 17.4092C14.9095 17.4092 14.911 17.3461 14.8699 17.3461C14.8288 17.3461 14.8288 17.4092 14.8699 17.4092Z" fill="white"/>
<path id="Vector_96" d="M14.6646 17.776C14.7042 17.776 14.7056 17.7129 14.6646 17.7129C14.6235 17.7129 14.6235 17.776 14.6646 17.776Z" fill="white"/>
<path id="Vector_97" d="M14.301 17.3901C14.3406 17.3901 14.3421 17.327 14.301 17.327C14.26 17.327 14.26 17.3901 14.301 17.3901Z" fill="white"/>
<path id="Vector_98" d="M14.1311 18.1033C14.1707 18.1033 14.1722 18.0402 14.1311 18.0402C14.0901 18.0402 14.0901 18.1033 14.1311 18.1033Z" fill="white"/>
<path id="Vector_99" d="M13.8921 17.9419C13.9317 17.9419 13.9332 17.8788 13.8921 17.8788C13.8511 17.8788 13.8511 17.9419 13.8921 17.9419Z" fill="white"/>
<path id="Vector_100" d="M14.2117 18.3894C14.2513 18.3894 14.2527 18.3263 14.2117 18.3263C14.1706 18.3263 14.1706 18.3894 14.2117 18.3894Z" fill="white"/>
<path id="Vector_101" d="M14.0432 18.9236C14.0828 18.9236 14.0843 18.8605 14.0432 18.8605C14.0022 18.8605 14.0022 18.9236 14.0432 18.9236Z" fill="white"/>
<path id="Vector_102" d="M13.5887 18.6595C13.6282 18.6595 13.6297 18.5964 13.5887 18.5964C13.5476 18.5964 13.5476 18.6595 13.5887 18.6595Z" fill="white"/>
<path id="Vector_103" d="M13.4583 19.3595C13.4979 19.3595 13.4993 19.2964 13.4583 19.2964C13.4172 19.2964 13.4172 19.3595 13.4583 19.3595Z" fill="white"/>
<path id="Vector_104" d="M13.9919 19.2788C14.0315 19.2788 14.033 19.2157 13.9919 19.2157C13.9509 19.2157 13.9509 19.2788 13.9919 19.2788Z" fill="white"/>
<path id="Vector_105" d="M14.5225 19.38C14.5621 19.38 14.5636 19.3169 14.5225 19.3169C14.4814 19.3169 14.4814 19.38 14.5225 19.38Z" fill="white"/>
<path id="Vector_106" d="M15.2542 18.9148C15.2938 18.9148 15.2952 18.8517 15.2542 18.8517C15.2131 18.8517 15.2131 18.9148 15.2542 18.9148Z" fill="white"/>
<path id="Vector_107" d="M15.4299 20.0889C15.4695 20.0889 15.471 20.0258 15.4299 20.0258C15.3889 20.0258 15.3889 20.0889 15.4299 20.0889Z" fill="white"/>
<path id="Vector_108" d="M18.3386 18.0505C18.3782 18.0505 18.3797 17.9874 18.3386 17.9874C18.2976 17.9874 18.2976 18.0505 18.3386 18.0505Z" fill="white"/>
<path id="Vector_109" d="M17.9517 18.4144C17.9912 18.4144 17.9927 18.3513 17.9517 18.3513C17.9106 18.3513 17.9106 18.4144 17.9517 18.4144Z" fill="white"/>
<path id="Vector_110" d="M17.1687 18.6742C17.2083 18.6742 17.2098 18.6111 17.1687 18.6111C17.1277 18.6111 17.1277 18.6742 17.1687 18.6742Z" fill="white"/>
<path id="Vector_111" d="M12.47 19.1746C12.5096 19.1746 12.511 19.1115 12.47 19.1115C12.4289 19.1115 12.4289 19.1746 12.47 19.1746Z" fill="white"/>
<path id="Vector_112" d="M12.5801 19.6074C12.6197 19.6074 12.6211 19.5443 12.5801 19.5443C12.539 19.5443 12.539 19.6074 12.5801 19.6074Z" fill="white"/>
<path id="Vector_113" d="M12.4365 17.016C12.4365 17.016 12.4408 17.0292 12.4438 17.0365C12.4438 17.0409 12.4467 17.0438 12.4497 17.0468C12.4525 17.0497 12.4555 17.0526 12.4584 17.0541C12.4613 17.057 12.4658 17.057 12.4702 17.0585C12.4745 17.0585 12.479 17.0585 12.4833 17.0585L12.4907 17.0556C12.4907 17.0556 12.4995 17.0497 12.5024 17.0438L12.5054 17.0365C12.5054 17.0365 12.5068 17.0247 12.5054 17.0203C12.5024 17.013 12.5009 17.0071 12.498 16.9998C12.498 16.9954 12.495 16.9924 12.4922 16.9896C12.4892 16.9866 12.4863 16.9837 12.4833 16.9822C12.4804 16.9792 12.476 16.9792 12.4716 16.9778C12.4672 16.9778 12.4628 16.9778 12.4584 16.9778L12.4511 16.9807C12.4511 16.9807 12.4423 16.9866 12.4393 16.9924L12.4365 16.9998C12.4365 16.9998 12.435 17.0115 12.4365 17.016Z" fill="white"/>
<path id="Vector_114" d="M12.5508 16.3995C12.5904 16.3995 12.5919 16.3364 12.5508 16.3364C12.5098 16.3364 12.5098 16.3995 12.5508 16.3995Z" fill="white"/>
<path id="Vector_115" d="M12.728 16.831C12.7676 16.831 12.7691 16.7679 12.728 16.7679C12.687 16.7679 12.687 16.831 12.728 16.831Z" fill="white"/>
<path id="Vector_116" d="M12.8484 15.9768C12.888 15.9768 12.8895 15.9137 12.8484 15.9137C12.8074 15.9137 12.8074 15.9768 12.8484 15.9768Z" fill="white"/>
<path id="Vector_117" d="M17.7273 14.6018C17.7669 14.6018 17.7684 14.5387 17.7273 14.5387C17.6863 14.5387 17.6863 14.6018 17.7273 14.6018Z" fill="white"/>
<path id="Vector_118" d="M16.0621 16.8457C16.1016 16.8457 16.1031 16.7826 16.0621 16.7826C16.021 16.7826 16.021 16.8457 16.0621 16.8457Z" fill="white"/>
<path id="Vector_119" d="M16.012 16.4581C16.0516 16.4581 16.053 16.395 16.012 16.395C15.9709 16.395 15.9709 16.4581 16.012 16.4581Z" fill="white"/>
<path id="Vector_120" d="M15.5796 16.5682C15.6192 16.5682 15.6206 16.5051 15.5796 16.5051C15.5386 16.5051 15.5386 16.5682 15.5796 16.5682Z" fill="white"/>
<path id="Vector_121" d="M15.2176 17.3739C15.2572 17.3739 15.2587 17.3108 15.2176 17.3108C15.1765 17.3108 15.1765 17.3739 15.2176 17.3739Z" fill="white"/>
<path id="Vector_122" d="M14.612 17.5339C14.6927 17.5339 14.6927 17.4092 14.612 17.4092C14.5313 17.4092 14.5313 17.5339 14.612 17.5339Z" fill="white"/>
<path id="Vector_123" d="M14.9945 16.7883C15.0752 16.7883 15.0752 16.6636 14.9945 16.6636C14.9139 16.6636 14.9139 16.7883 14.9945 16.7883Z" fill="white"/>
<path id="Vector_124" d="M16.5881 16.5287C16.6687 16.5287 16.6687 16.4039 16.5881 16.4039C16.5074 16.4039 16.5074 16.5287 16.5881 16.5287Z" fill="white"/>
<path id="Vector_125" d="M13.9714 17.6292C14.052 17.6292 14.052 17.5045 13.9714 17.5045C13.8907 17.5045 13.8907 17.6292 13.9714 17.6292Z" fill="white"/>
<path id="Vector_126" d="M14.3598 18.2104C14.4404 18.2104 14.4404 18.0857 14.3598 18.0857C14.2792 18.0857 14.2792 18.2104 14.3598 18.2104Z" fill="white"/>
<path id="Vector_127" d="M19.9995 14.6605C19.6301 14.6943 19.6022 14.7222 19.5685 15.092C19.5348 14.7222 19.5069 14.6943 19.1375 14.6605C19.5069 14.6268 19.5348 14.5989 19.5685 14.2291C19.6022 14.5989 19.6301 14.6268 19.9995 14.6605Z" fill="white"/>
<path id="Vector_128" d="M14.9096 9.80305C14.5401 9.83678 14.5123 9.86469 14.4786 10.2345C14.4449 9.86469 14.417 9.83678 14.0476 9.80305C14.417 9.76925 14.4449 9.7414 14.4786 9.37158C14.5123 9.7414 14.5401 9.76925 14.9096 9.80305Z" fill="white"/>
<path id="Vector_129" d="M9.21989 12.1906C8.85045 12.2244 8.82263 12.2523 8.78887 12.6221C8.75517 12.2523 8.72735 12.2244 8.35791 12.1906C8.72735 12.1569 8.75517 12.129 8.78887 11.7592C8.82263 12.129 8.85045 12.1569 9.21989 12.1906Z" fill="white"/>
<path id="Vector_130" d="M19.9996 11.7593C19.9996 11.8224 19.9967 11.8854 19.9893 11.9486C19.9865 11.9823 19.982 12.0161 19.9761 12.0484C19.9234 12.3595 19.7899 12.6412 19.595 12.8731C19.2783 13.2502 18.8019 13.4909 18.2712 13.4909C17.824 13.4909 17.4179 13.3207 17.1101 13.0433C17.0661 13.0037 17.0251 12.9626 16.9855 12.9186C16.9635 12.8936 16.9415 12.8672 16.9195 12.8423C16.9004 12.8188 16.8814 12.7939 16.8638 12.7689C16.8389 12.7352 16.8154 12.6985 16.7934 12.6633C16.7743 12.6325 16.7553 12.6002 16.7391 12.5664C16.7172 12.5253 16.6966 12.4828 16.6791 12.4387C16.6116 12.2817 16.5676 12.1129 16.5501 11.9354C16.5442 11.8781 16.5413 11.8209 16.5413 11.7622C16.5413 11.7387 16.5413 11.7138 16.5427 11.6903C16.5486 11.5392 16.5735 11.3938 16.616 11.2559C16.833 10.5471 17.4912 10.032 18.2697 10.032C18.5351 10.032 18.7857 10.0921 19.0101 10.1993C19.2226 10.3005 19.4118 10.4444 19.5657 10.619C19.7284 10.8039 19.853 11.0226 19.9249 11.2647C19.9263 11.272 19.9292 11.2794 19.9307 11.2867C19.9498 11.3528 19.9644 11.4202 19.9761 11.4892C19.9908 11.5788 19.9981 11.6697 19.9981 11.7622L19.9996 11.7593Z" fill="url(#paint11_linear_86_5070)"/>
<g id="Mask group_2">
<mask id="mask2_86_5070" style="mask-type:luminance" maskUnits="userSpaceOnUse" x="16" y="10" width="4" height="4">
<g id="Group_4">
<path id="Vector_131" d="M19.9996 11.7593C19.9996 11.8224 19.9967 11.8854 19.9893 11.9486C19.9865 11.9823 19.982 12.0161 19.9761 12.0484C19.9234 12.3595 19.7899 12.6412 19.595 12.8731C19.2783 13.2502 18.8019 13.4909 18.2712 13.4909C17.824 13.4909 17.4179 13.3207 17.1101 13.0433C17.0661 13.0037 17.0251 12.9626 16.9855 12.9186C16.9635 12.8936 16.9415 12.8672 16.9195 12.8423C16.9004 12.8188 16.8814 12.7939 16.8638 12.7689C16.8389 12.7352 16.8154 12.6985 16.7934 12.6633C16.7743 12.6325 16.7553 12.6002 16.7391 12.5664C16.7172 12.5253 16.6966 12.4828 16.6791 12.4387C16.6116 12.2817 16.5676 12.1129 16.5501 11.9354C16.5442 11.8781 16.5413 11.8209 16.5413 11.7622C16.5413 11.7387 16.5413 11.7138 16.5427 11.6903C16.5486 11.5392 16.5735 11.3938 16.616 11.2559C16.833 10.5471 17.4912 10.032 18.2697 10.032C18.5351 10.032 18.7857 10.0921 19.0101 10.1993C19.2226 10.3005 19.4118 10.4444 19.5657 10.619C19.7284 10.8039 19.853 11.0226 19.9249 11.2647C19.9263 11.272 19.9292 11.2794 19.9307 11.2867C19.9498 11.3528 19.9644 11.4202 19.9761 11.4892C19.9908 11.5788 19.9981 11.6697 19.9981 11.7622L19.9996 11.7593Z" fill="white"/>
</g>
</mask>
<g mask="url(#mask2_86_5070)">
<g id="Group_5">
<path id="Vector_132" style="mix-blend-mode:color-burn" d="M18.8399 9.99963C18.3326 10.1596 17.9192 10.5881 17.7756 11.1017C17.6861 11.4231 17.7067 11.79 17.9046 12.0571C18.1025 12.3242 18.5041 12.4474 18.7871 12.2714C18.9249 12.1862 19.0172 12.0454 19.1008 11.9059C19.1829 11.7665 19.2606 11.6198 19.3794 11.5097C19.4981 11.3996 19.6697 11.3292 19.8236 11.3791C19.6814 11.2397 19.438 11.2793 19.2738 11.3923C19.1097 11.5053 18.9953 11.6755 18.8472 11.8076C18.6991 11.9396 18.488 12.038 18.3048 11.9632C18.1376 11.8941 18.0482 11.6975 18.0614 11.5156C18.0746 11.3351 18.1685 11.1692 18.2784 11.0254C18.5291 10.6967 18.8707 10.4384 19.2562 10.2887" fill="url(#paint12_linear_86_5070)"/>
<path id="Vector_133" style="mix-blend-mode:color-burn" d="M18.5379 9.75159C17.9075 10.1185 17.4838 10.8185 17.4472 11.5478C17.4326 11.859 17.4985 12.1994 17.7345 12.4019C17.8533 12.5032 18.0028 12.5619 18.1201 12.6661C18.2725 12.8025 18.3532 13.0183 18.3268 13.2222C18.3004 13.4263 18.167 13.6127 17.9837 13.7065C18.145 13.5936 18.1333 13.3397 18.0219 13.1768C17.9105 13.0139 17.733 12.9141 17.5791 12.7923C17.2038 12.5003 16.9443 12.0615 16.8695 11.5918C16.7948 11.1223 16.9033 10.6248 17.1686 10.2285" fill="url(#paint13_linear_86_5070)"/>
<path id="Vector_134" style="mix-blend-mode:color-burn" d="M20.1741 11.5302C19.8295 11.5097 19.4865 11.74 19.3736 12.0673C19.315 12.239 19.3135 12.4284 19.2373 12.5927C19.1479 12.785 18.9704 12.9156 18.8326 13.0755C18.6948 13.2355 18.5966 13.4717 18.7007 13.6537C18.6773 13.5011 18.7828 13.3573 18.906 13.2634C19.0276 13.1694 19.1728 13.1034 19.2827 12.9963C19.4176 12.8642 19.488 12.6822 19.5466 12.5032C19.6053 12.3242 19.6551 12.1392 19.7577 11.9822C19.8604 11.8252 20.0333 11.699 20.221 11.7063" fill="url(#paint14_linear_86_5070)"/>
</g>
</g>
</g>
<path id="Vector_135" d="M19.7548 10.8714C19.9879 10.8068 20.5699 10.7261 20.4878 11.1268C20.4042 11.3836 20.1154 11.5861 19.9072 11.7358C19.2373 12.1819 18.4838 12.4827 17.7097 12.6911C17.3711 12.7821 15.8361 13.1255 16.0502 12.4182C16.1425 12.2156 16.3756 12.0865 16.5545 11.9882L16.5647 12.0601C16.4416 12.1657 16.1293 12.3859 16.1997 12.562C16.2832 12.6882 16.7392 12.6148 16.8829 12.5913C17.6408 12.4519 18.3812 12.1878 19.0863 11.8796C19.4865 11.6917 19.9029 11.5053 20.2298 11.2045C20.2811 11.1502 20.3823 11.0417 20.3104 10.9903C20.2679 10.9609 20.2078 10.9448 20.1536 10.9359C20.029 10.9154 19.9044 10.911 19.7783 10.9198L19.7578 10.8846L19.7504 10.8714H19.7548Z" fill="url(#paint15_linear_86_5070)"/>
<path id="Vector_136" d="M10.6184 17.3858C10.57 17.4811 10.5172 17.5721 10.4586 17.6587C10.4278 17.7056 10.3956 17.7526 10.3619 17.7966C10.0466 18.2193 9.63032 18.5363 9.16559 18.7315C8.4047 19.0499 7.51483 19.044 6.72465 18.6375C6.06054 18.2956 5.58408 17.732 5.34072 17.0834C5.30554 16.991 5.27622 16.897 5.2513 16.8016C5.23664 16.7474 5.22345 16.6916 5.21318 16.6373C5.20292 16.5859 5.19412 16.536 5.18533 16.4846C5.17507 16.4157 5.16773 16.3438 5.16187 16.2734C5.15747 16.2117 5.15454 16.1501 5.15454 16.087C5.15454 16.0092 5.156 15.93 5.16187 15.8522C5.18239 15.5675 5.24543 15.2813 5.35539 15.0054C5.39057 14.9159 5.43016 14.8278 5.4756 14.7413C5.49466 14.706 5.51372 14.6694 5.53424 14.6341C5.65885 14.414 5.80692 14.2174 5.97551 14.0442C6.83897 13.1564 8.2112 12.8936 9.36935 13.4894C9.76374 13.692 10.0921 13.9737 10.3442 14.3039C10.5833 14.618 10.7548 14.976 10.8501 15.3547C10.9512 15.7538 10.9673 16.175 10.8911 16.5904C10.8882 16.6036 10.8867 16.6153 10.8837 16.6285C10.8618 16.7415 10.8325 16.853 10.7958 16.9646C10.7489 17.1084 10.6902 17.2493 10.6199 17.3872L10.6184 17.3858Z" fill="url(#paint16_linear_86_5070)"/>
<g id="Mask group_3">
<mask id="mask3_86_5070" style="mask-type:luminance" maskUnits="userSpaceOnUse" x="5" y="13" width="6" height="6">
<g id="Group_6">
<path id="Vector_137" d="M10.6184 17.3858C10.57 17.4811 10.5172 17.5721 10.4586 17.6587C10.4278 17.7056 10.3956 17.7526 10.3619 17.7966C10.0466 18.2193 9.63032 18.5363 9.16559 18.7315C8.4047 19.0499 7.51483 19.044 6.72465 18.6375C6.06054 18.2956 5.58408 17.732 5.34072 17.0834C5.30554 16.991 5.27622 16.897 5.2513 16.8016C5.23664 16.7474 5.22345 16.6916 5.21318 16.6373C5.20292 16.5859 5.19412 16.536 5.18533 16.4846C5.17507 16.4157 5.16773 16.3438 5.16187 16.2734C5.15747 16.2117 5.15454 16.1501 5.15454 16.087C5.15454 16.0092 5.156 15.93 5.16187 15.8522C5.18239 15.5675 5.24543 15.2813 5.35539 15.0054C5.39057 14.9159 5.43016 14.8278 5.4756 14.7413C5.49466 14.706 5.51372 14.6694 5.53424 14.6341C5.65885 14.414 5.80692 14.2174 5.97551 14.0442C6.83897 13.1564 8.2112 12.8936 9.36935 13.4894C9.76374 13.692 10.0921 13.9737 10.3442 14.3039C10.5833 14.618 10.7548 14.976 10.8501 15.3547C10.9512 15.7538 10.9673 16.175 10.8911 16.5904C10.8882 16.6036 10.8867 16.6153 10.8837 16.6285C10.8618 16.7415 10.8325 16.853 10.7958 16.9646C10.7489 17.1084 10.6902 17.2493 10.6199 17.3872L10.6184 17.3858Z" fill="white"/>
</g>
</mask>
<g mask="url(#mask3_86_5070)">
<g id="Group_7">
<path id="Vector_138" style="mix-blend-mode:color-burn" d="M10.2403 13.8813C9.36364 13.7316 8.42093 14.0516 7.81547 14.7046C7.43721 15.1126 7.18657 15.6761 7.27747 16.225C7.36831 16.7738 7.87118 17.2654 8.42681 17.2199C8.69659 17.1979 8.94286 17.0614 9.17157 16.9161C9.40027 16.7709 9.62747 16.6139 9.88844 16.5404C10.1494 16.4671 10.4573 16.4949 10.6493 16.6858C10.5437 16.3702 10.1523 16.2411 9.82248 16.2837C9.49261 16.3262 9.19207 16.4906 8.87102 16.5757C8.54998 16.6608 8.15996 16.6432 7.94452 16.3907C7.74801 16.1604 7.76708 15.7994 7.92545 15.5396C8.08375 15.2799 8.34909 15.1067 8.62325 14.9761C9.24634 14.6782 9.9544 14.5564 10.6405 14.6297" fill="url(#paint17_linear_86_5070)"/>
<path id="Vector_139" style="mix-blend-mode:color-burn" d="M9.97931 13.2826C8.76101 13.3472 7.59555 14.0618 6.98565 15.1185C6.72618 15.569 6.56345 16.1267 6.7599 16.6094C6.8581 16.8516 7.03698 17.0527 7.13082 17.2962C7.25392 17.6176 7.20847 17.9977 7.01203 18.281C6.81708 18.5642 6.47695 18.7403 6.13244 18.7373C6.45789 18.6933 6.63529 18.3044 6.59424 17.9786C6.55319 17.6529 6.367 17.3667 6.22773 17.0688C5.89201 16.3468 5.84216 15.497 6.08845 14.7398C6.33622 13.9826 6.87717 13.3266 7.57354 12.9421" fill="url(#paint18_linear_86_5070)"/>
<path id="Vector_140" style="mix-blend-mode:color-burn" d="M11.0539 17.1788C10.557 16.8853 9.87084 16.9645 9.45301 17.3637C9.23312 17.5735 9.08801 17.8553 8.84905 18.0417C8.57052 18.2589 8.20545 18.3176 7.87853 18.4511C7.5516 18.5846 7.22468 18.8591 7.24081 19.2113C7.3229 18.9662 7.58974 18.8341 7.84333 18.7872C8.09698 18.7402 8.36082 18.7549 8.60716 18.6786C8.9077 18.5861 9.15254 18.3704 9.37536 18.1488C9.59819 17.9272 9.8137 17.6895 10.0879 17.5354C10.3619 17.3813 10.7138 17.3241 10.988 17.4796" fill="url(#paint19_linear_86_5070)"/>
</g>
</g>
</g>
<path id="Vector_141" d="M10.9337 15.8785C11.3295 15.9592 12.2561 16.2879 11.8295 16.8206C11.5084 17.1391 10.9264 17.2183 10.5012 17.2829C9.16424 17.4355 7.81402 17.3049 6.50337 17.0217C5.93162 16.8984 3.38512 16.2351 4.24422 15.3458C4.53596 15.1153 4.98163 15.1007 5.32321 15.0934L5.2851 15.2079C5.02268 15.2694 4.38935 15.359 4.35857 15.6745C4.38789 15.9269 5.1209 16.1661 5.35254 16.2424C6.58693 16.6152 7.88879 16.7884 9.17449 16.8706C9.91337 16.8984 10.6757 16.938 11.3911 16.7414C11.5084 16.7003 11.7415 16.6152 11.6755 16.4846C11.636 16.4082 11.5567 16.3393 11.4849 16.2835C11.3164 16.1573 11.1345 16.0561 10.9396 15.971L10.9367 15.902V15.877L10.9337 15.8785Z" fill="url(#paint20_linear_86_5070)"/>
<path id="Vector_142" d="M9.40271 10.451C10.4015 10.111 10.9359 9.02483 10.5963 8.02499C10.2566 7.02515 9.17155 6.49024 8.17272 6.83023C7.1739 7.1702 6.63954 8.25632 6.97917 9.25623C7.31881 10.2561 8.40389 10.791 9.40271 10.451Z" fill="url(#paint21_linear_86_5070)"/>
<g id="Mask group_4">
<mask id="mask4_86_5070" style="mask-type:luminance" maskUnits="userSpaceOnUse" x="6" y="6" width="5" height="5">
<g id="Group_8">
<path id="Vector_143" d="M9.40271 10.451C10.4015 10.111 10.9359 9.02483 10.5963 8.02499C10.2566 7.02515 9.17155 6.49024 8.17272 6.83023C7.1739 7.1702 6.63954 8.25632 6.97917 9.25623C7.31881 10.2561 8.40389 10.791 9.40271 10.451Z" fill="white"/>
</g>
</mask>
<g mask="url(#mask4_86_5070)">
<g id="Group_9">
<path id="Vector_144" d="M9.73158 9.14115C9.82686 9.4097 9.64511 9.72081 9.3255 9.83528C9.00445 9.94975 8.66727 9.82502 8.57199 9.55496C8.47664 9.28641 8.65846 8.9753 8.97807 8.86083C9.29912 8.74636 9.6363 8.87109 9.73158 9.14115Z" fill="url(#paint22_linear_86_5070)"/>
<path id="Vector_145" d="M9.45307 8.25619C9.45307 8.35745 9.38711 8.43963 9.30653 8.43963C9.22587 8.43963 9.15991 8.35745 9.15991 8.25619C9.15991 8.15493 9.22587 8.07275 9.30653 8.07275C9.38711 8.07275 9.45307 8.15493 9.45307 8.25619Z" fill="url(#paint23_linear_86_5070)"/>
<path id="Vector_146" d="M7.88587 9.1778C7.88587 9.22912 7.84335 9.27168 7.79202 9.27168C7.74076 9.27168 7.69824 9.22912 7.69824 9.1778C7.69824 9.12642 7.74076 9.08386 7.79202 9.08386C7.84335 9.08386 7.88587 9.12642 7.88587 9.1778Z" fill="url(#paint24_linear_86_5070)"/>
<path id="Vector_147" d="M10.2123 9.11035C10.2123 9.16174 10.1698 9.2043 10.1184 9.2043C10.0672 9.2043 10.0247 9.16174 10.0247 9.11035C10.0247 9.05904 10.0672 9.01648 10.1184 9.01648C10.1698 9.01648 10.2123 9.05904 10.2123 9.11035Z" fill="url(#paint25_linear_86_5070)"/>
<path id="Vector_148" d="M9.75354 7.60175C9.75354 7.65307 9.71103 7.69563 9.65977 7.69563C9.60843 7.69563 9.56592 7.65307 9.56592 7.60175C9.56592 7.55037 9.60843 7.50781 9.65977 7.50781C9.71103 7.50781 9.75354 7.55037 9.75354 7.60175Z" fill="url(#paint26_linear_86_5070)"/>
<path id="Vector_149" d="M8.78748 7.92755C8.78748 8.04202 8.69514 8.13446 8.58079 8.13446C8.46643 8.13446 8.37402 8.04202 8.37402 7.92755C8.37402 7.81309 8.46643 7.72058 8.58079 7.72058C8.69514 7.72058 8.78748 7.81309 8.78748 7.92755Z" fill="url(#paint27_linear_86_5070)"/>
<path id="Vector_150" d="M10.2915 10.2315C10.4761 10.2315 10.6258 10.0816 10.6258 9.89683C10.6258 9.7121 10.4761 9.56226 10.2915 9.56226C10.107 9.56226 9.95728 9.7121 9.95728 9.89683C9.95728 10.0816 10.107 10.2315 10.2915 10.2315Z" fill="url(#paint28_linear_86_5070)"/>
<path id="Vector_151" d="M8.07064 9.76036C8.07064 9.85868 7.98999 9.93941 7.89177 9.93941C7.79355 9.93941 7.71289 9.85868 7.71289 9.76036C7.71289 9.66204 7.79355 9.5813 7.89177 9.5813C7.98999 9.5813 8.07064 9.66204 8.07064 9.76036Z" fill="url(#paint29_linear_86_5070)"/>
<path id="Vector_152" d="M9.31378 10.318C9.31378 10.4031 9.07776 10.4735 8.78754 10.4735C8.49725 10.4735 8.26123 10.4046 8.26123 10.318C8.26123 10.2314 8.49725 10.1639 8.78754 10.1639C9.07776 10.1639 9.31378 10.2329 9.31378 10.318Z" fill="url(#paint30_linear_86_5070)"/>
<path id="Vector_153" d="M7.37563 8.25321C7.31404 8.51739 7.17768 8.70965 7.07071 8.68468C6.96367 8.6597 6.92704 8.42639 6.98862 8.16221C7.05014 7.89811 7.1865 7.70585 7.29354 7.73082C7.40058 7.75572 7.43721 7.98904 7.37563 8.25321Z" fill="url(#paint31_linear_86_5070)"/>
<path id="Vector_154" d="M10.5568 8.17255C10.6535 8.55557 10.6081 8.89891 10.4527 8.93859C10.2973 8.97821 10.0921 8.69932 9.99532 8.3163C9.89854 7.93328 9.94399 7.58994 10.0994 7.55026C10.2548 7.51064 10.46 7.78953 10.5568 8.17255Z" fill="url(#paint32_linear_86_5070)"/>
<path id="Vector_155" d="M8.01471 8.12844C8.07137 8.12844 8.1173 8.08246 8.1173 8.02574C8.1173 7.96902 8.07137 7.92297 8.01471 7.92297C7.95804 7.92297 7.91211 7.96902 7.91211 8.02574C7.91211 8.08246 7.95804 8.12844 8.01471 8.12844Z" fill="url(#paint33_linear_86_5070)"/>
<path id="Vector_156" d="M8.42385 7.51658C8.42385 7.61634 8.34326 7.69564 8.24504 7.69564C8.14682 7.69564 8.06616 7.6149 8.06616 7.51658C8.06616 7.41826 8.14682 7.33752 8.24504 7.33752C8.34326 7.33752 8.42385 7.41826 8.42385 7.51658Z" fill="url(#paint34_linear_86_5070)"/>
</g>
</g>
</g>
<path id="Vector_157" d="M18.6715 9.05614C18.8328 9.05614 18.8328 8.80518 18.6715 8.80518C18.5102 8.80518 18.5102 9.05614 18.6715 9.05614Z" fill="white"/>
<path id="Vector_158" d="M13.0755 13.9723C13.2368 13.9723 13.2368 13.7213 13.0755 13.7213C12.9143 13.7213 12.9143 13.9723 13.0755 13.9723Z" fill="white"/>
<path id="Vector_159" d="M12.4921 11.6683C12.6533 11.6683 12.6533 11.4174 12.4921 11.4174C12.3308 11.4174 12.3308 11.6683 12.4921 11.6683Z" fill="white"/>
<path id="Vector_160" d="M21.1783 10.0878C21.3395 10.0878 21.3395 9.83679 21.1783 9.83679C21.0171 9.83679 21.0171 10.0878 21.1783 10.0878Z" fill="white"/>
<path id="Vector_161" d="M5.62534 10.4662C5.7866 10.4662 5.7866 10.2153 5.62534 10.2153C5.46408 10.2153 5.46408 10.4662 5.62534 10.4662Z" fill="white"/>
<path id="Vector_162" d="M6.7584 13.0786C6.91968 13.0786 6.91968 12.8276 6.7584 12.8276C6.59714 12.8276 6.59714 13.0786 6.7584 13.0786Z" fill="white"/>
<path id="Vector_163" d="M5.34946 13.3866C5.51072 13.3866 5.51072 13.1357 5.34946 13.1357C5.1882 13.1357 5.1882 13.3866 5.34946 13.3866Z" fill="white"/>
<path id="Vector_164" d="M14.5855 12.0175C14.6646 12.0175 14.6646 11.8942 14.5855 11.8942C14.5063 11.8942 14.5063 12.0175 14.5855 12.0175Z" fill="white"/>
<path id="Vector_165" d="M16.6468 8.51153C16.726 8.51153 16.726 8.38831 16.6468 8.38831C16.5676 8.38831 16.5676 8.51153 16.6468 8.51153Z" fill="white"/>
<path id="Vector_166" d="M12.4569 8.54681C12.536 8.54681 12.536 8.42358 12.4569 8.42358C12.3777 8.42358 12.3777 8.54681 12.4569 8.54681Z" fill="white"/>
<path id="Vector_167" d="M21.0069 12.3272C21.086 12.3272 21.086 12.2039 21.0069 12.2039C20.9277 12.2039 20.9277 12.3272 21.0069 12.3272Z" fill="white"/>
<path id="Vector_168" d="M11.6331 19.4417C11.7123 19.4417 11.7123 19.3184 11.6331 19.3184C11.5539 19.3184 11.5539 19.4417 11.6331 19.4417Z" fill="white"/>
<path id="Vector_169" d="M11.3589 18.7534C11.4381 18.7534 11.4381 18.6301 11.3589 18.6301C11.2798 18.6301 11.2798 18.7534 11.3589 18.7534Z" fill="white"/>
<path id="Vector_170" d="M17.1951 9.37449C17.2346 9.37449 17.2361 9.3114 17.1951 9.3114C17.1541 9.3114 17.1541 9.37449 17.1951 9.37449Z" fill="white"/>
<path id="Vector_171" d="M17.3667 8.99736C17.4063 8.99736 17.4078 8.9342 17.3667 8.9342C17.3257 8.9342 17.3257 8.99736 17.3667 8.99736Z" fill="white"/>
<path id="Vector_172" d="M20.8 13.3969C20.8396 13.3969 20.8411 13.3339 20.8 13.3339C20.759 13.3339 20.759 13.3969 20.8 13.3969Z" fill="white"/>
<path id="Vector_173" d="M20.0804 13.7052C20.1199 13.7052 20.1214 13.6421 20.0804 13.6421C20.0393 13.6421 20.0393 13.7052 20.0804 13.7052Z" fill="white"/>
<path id="Vector_174" d="M9.81372 11.6095C9.85329 11.6095 9.8548 11.5464 9.81372 11.5464C9.77271 11.5464 9.77271 11.6095 9.81372 11.6095Z" fill="white"/>
<path id="Vector_175" d="M10.0542 11.0592C10.0938 11.0592 10.0953 10.9961 10.0542 10.9961C10.0132 10.9961 10.0132 11.0592 10.0542 11.0592Z" fill="white"/>
<path id="Vector_176" d="M6.92993 11.1972C6.96957 11.1972 6.97101 11.134 6.92993 11.134C6.88892 11.134 6.88892 11.1972 6.92993 11.1972Z" fill="white"/>
<path id="Vector_177" d="M5.34963 12.2625C5.38921 12.2625 5.39068 12.1995 5.34963 12.1995C5.30859 12.1995 5.30859 12.2625 5.34963 12.2625Z" fill="white"/>
<path id="Vector_178" d="M5.55642 11.6433C5.596 11.6433 5.59747 11.5802 5.55642 11.5802C5.51537 11.5802 5.51537 11.6433 5.55642 11.6433Z" fill="white"/>
<path id="Vector_179" d="M4.73245 10.1317C4.77203 10.1317 4.77349 10.0686 4.73245 10.0686C4.6914 10.0686 4.6914 10.1317 4.73245 10.1317Z" fill="white"/>
<path id="Vector_180" d="M5.31595 9.13523C5.35553 9.13523 5.35699 9.07214 5.31595 9.07214C5.27489 9.07214 5.27489 9.13523 5.31595 9.13523Z" fill="white"/>
<path id="Vector_181" d="M5.96828 13.0184C6.00787 13.0184 6.00934 12.9553 5.96828 12.9553C5.92724 12.9553 5.92724 13.0184 5.96828 13.0184Z" fill="white"/>
<path id="Vector_182" d="M11.9087 15.4588C11.9483 15.4588 11.9498 15.3958 11.9087 15.3958C11.8677 15.3958 11.8677 15.4588 11.9087 15.4588Z" fill="white"/>
<path id="Vector_183" d="M11.5643 14.634C11.6038 14.634 11.6053 14.5709 11.5643 14.5709C11.5232 14.5709 11.5232 14.634 11.5643 14.634Z" fill="white"/>
<path id="Vector_184" d="M19.8735 16.5241C19.9131 16.5241 19.9146 16.4611 19.8735 16.4611C19.8325 16.4611 19.8325 16.5241 19.8735 16.5241Z" fill="white"/>
<path id="Vector_185" d="M19.4954 17.1421C19.535 17.1421 19.5364 17.079 19.4954 17.079C19.4543 17.079 19.4543 17.1421 19.4954 17.1421Z" fill="white"/>
<path id="Vector_186" d="M19.0833 16.0091C19.1229 16.0091 19.1243 15.946 19.0833 15.946C19.0422 15.946 19.0422 16.0091 19.0833 16.0091Z" fill="white"/>
<path id="Vector_187" d="M14.4493 7.8967C14.4888 7.8967 14.4903 7.83362 14.4493 7.83362C14.4082 7.83362 14.4082 7.8967 14.4493 7.8967Z" fill="white"/>
<path id="Vector_188" d="M14.3423 8.14039V8.10659C14.3423 8.10659 14.3423 8.09784 14.3394 8.09489C14.3394 8.09045 14.3365 8.08751 14.3335 8.08456C14.3306 8.08169 14.3277 8.07875 14.3233 8.07875C14.3189 8.07724 14.316 8.07581 14.3116 8.07581H14.3028C14.3028 8.07581 14.2925 8.08169 14.2896 8.08456C14.2837 8.09045 14.2808 8.09784 14.2808 8.10659V8.14039C14.2808 8.14039 14.2808 8.14915 14.2837 8.15209C14.2837 8.15647 14.2866 8.15942 14.2896 8.16236C14.2925 8.1653 14.2955 8.16824 14.2998 8.16824C14.3042 8.16968 14.3071 8.17118 14.3116 8.17118H14.3203C14.3203 8.17118 14.3306 8.1653 14.3335 8.16236C14.3394 8.15647 14.3423 8.14915 14.3423 8.14039Z" fill="white"/>
<path id="Vector_189" d="M13.7617 7.79404C13.8014 7.79404 13.8028 7.73096 13.7617 7.73096C13.7207 7.73096 13.7207 7.79404 13.7617 7.79404Z" fill="white"/>
<path id="Vector_190" d="M12.6285 9.82212C12.668 9.82212 12.6695 9.75903 12.6285 9.75903C12.5874 9.75903 12.5874 9.82212 12.6285 9.82212Z" fill="white"/>
<path id="Vector_191" d="M12.9729 9.47861C13.0125 9.47861 13.014 9.41553 12.9729 9.41553C12.9319 9.41553 12.9319 9.47861 12.9729 9.47861Z" fill="white"/>
<path id="Vector_192" d="M12.1492 9.61521C12.1888 9.61521 12.1902 9.55212 12.1492 9.55212C12.1081 9.55212 12.1081 9.61521 12.1492 9.61521Z" fill="white"/>
<path id="Vector_193" d="M11.29 8.27531C11.3296 8.27531 11.3311 8.21216 11.29 8.21216C11.249 8.21216 11.249 8.27531 11.29 8.27531Z" fill="white"/>
<path id="Vector_194" d="M11.7371 7.79404C11.7766 7.79404 11.7781 7.73096 11.7371 7.73096C11.696 7.73096 11.696 7.79404 11.7371 7.79404Z" fill="white"/>
<path id="Vector_195" d="M11.7707 12.5032C11.8103 12.5032 11.8118 12.4401 11.7707 12.4401C11.7297 12.4401 11.7297 12.5032 11.7707 12.5032Z" fill="white"/>
<path id="Vector_196" d="M11.4278 13.3969C11.4674 13.3969 11.4688 13.3339 11.4278 13.3339C11.3867 13.3339 11.3867 13.3969 11.4278 13.3969Z" fill="white"/>
<path id="Vector_197" d="M12.3895 13.0873C12.429 13.0873 12.4305 13.0242 12.3895 13.0242C12.3484 13.0242 12.3484 13.0873 12.3895 13.0873Z" fill="white"/>
<path id="Vector_198" d="M19.6331 15.7685C19.6726 15.7685 19.6741 15.7054 19.6331 15.7054C19.592 15.7054 19.592 15.7685 19.6331 15.7685Z" fill="white"/>
</g>
</g>
</g>
<path id="Vector_199" style="mix-blend-mode:color-dodge" d="M5.84359 8.30167C5.05194 8.49982 4.54176 9.26586 4.65611 10.0759C4.95078 12.1657 5.8392 15.2401 6.61619 16.3951C7.59254 17.8479 9.04248 18.9779 10.6888 19.5693C9.31513 18.5919 8.24058 17.2022 7.63949 15.6275C7.03841 14.0529 6.62059 9.63711 6.99295 7.99207C6.53556 8.13144 6.17052 8.221 5.84506 8.30318L5.84359 8.30167Z" fill="url(#paint35_linear_86_5070)"/>
</g>
</g>
</g>
<defs>
<linearGradient id="paint0_linear_86_5070" x1="12.992" y1="7.23935" x2="12.9023" y2="24.8378" gradientUnits="userSpaceOnUse">
<stop stop-color="#121324"/>
<stop offset="0.56" stop-color="#7C69FF"/>
<stop offset="1" stop-color="#69E6FF"/>
</linearGradient>
<linearGradient id="paint1_linear_86_5070" x1="2.48356" y1="7.19383" x2="2.53644" y2="13.507" gradientUnits="userSpaceOnUse">
<stop stop-color="#313752"/>
<stop offset="1" stop-color="#8489BA"/>
</linearGradient>
<linearGradient id="paint2_linear_86_5070" x1="23.559" y1="6.9648" x2="23.6134" y2="13.3104" gradientUnits="userSpaceOnUse">
<stop stop-color="#313752"/>
<stop offset="1" stop-color="#8489BA"/>
</linearGradient>
<linearGradient id="paint3_linear_86_5070" x1="5.22358" y1="19.6925" x2="10.9338" y2="19.6925" gradientUnits="userSpaceOnUse">
<stop stop-color="#313752"/>
<stop offset="1" stop-color="#8489BA"/>
</linearGradient>
<linearGradient id="paint4_linear_86_5070" x1="22.3307" y1="18.978" x2="13.826" y2="22.9894" gradientUnits="userSpaceOnUse">
<stop stop-color="#313752"/>
<stop offset="1" stop-color="#8489BA"/>
</linearGradient>
<linearGradient id="paint5_linear_86_5070" x1="0.979284" y1="7.62966" x2="1.03658" y2="16.6299" gradientUnits="userSpaceOnUse">
<stop stop-color="#313752"/>
<stop offset="1" stop-color="#8489BA"/>
</linearGradient>
<linearGradient id="paint6_linear_86_5070" x1="0.960221" y1="7.62963" x2="1.01751" y2="16.6299" gradientUnits="userSpaceOnUse">
<stop stop-color="#313752"/>
<stop offset="1" stop-color="#8489BA"/>
</linearGradient>
<linearGradient id="paint7_linear_86_5070" x1="24.8404" y1="7.47851" x2="24.8962" y2="16.4803" gradientUnits="userSpaceOnUse">
<stop stop-color="#313752"/>
<stop offset="1" stop-color="#8489BA"/>
</linearGradient>
<linearGradient id="paint8_linear_86_5070" x1="24.8213" y1="7.47848" x2="24.8771" y2="16.4802" gradientUnits="userSpaceOnUse">
<stop stop-color="#313752"/>
<stop offset="1" stop-color="#8489BA"/>
</linearGradient>
<linearGradient id="paint9_linear_86_5070" x1="13.1048" y1="7.99935" x2="13.1048" y2="1.6582" gradientUnits="userSpaceOnUse">
<stop stop-color="#313752"/>
<stop offset="1" stop-color="#8489BA"/>
</linearGradient>
<linearGradient id="paint10_linear_86_5070" x1="13.1047" y1="7.99944" x2="13.1047" y2="1.65829" gradientUnits="userSpaceOnUse">
<stop stop-color="#313752"/>
<stop offset="1" stop-color="#8489BA"/>
</linearGradient>
<linearGradient id="paint11_linear_86_5070" x1="20.5333" y1="10.5823" x2="16.7815" y2="12.5281" gradientUnits="userSpaceOnUse">
<stop stop-color="#FFAA6E"/>
<stop offset="0.38" stop-color="#FF8CF9"/>
<stop offset="1" stop-color="#9080FF"/>
</linearGradient>
<linearGradient id="paint12_linear_86_5070" x1="17.7257" y1="11.1765" x2="19.8236" y2="11.1765" gradientUnits="userSpaceOnUse">
<stop stop-color="#808080"/>
<stop offset="1" stop-color="white"/>
</linearGradient>
<linearGradient id="paint13_linear_86_5070" x1="16.8461" y1="11.7283" x2="18.5379" y2="11.7283" gradientUnits="userSpaceOnUse">
<stop stop-color="#808080"/>
<stop offset="1" stop-color="white"/>
</linearGradient>
<linearGradient id="paint14_linear_86_5070" x1="18.6567" y1="12.5927" x2="20.221" y2="12.5927" gradientUnits="userSpaceOnUse">
<stop stop-color="#808080"/>
<stop offset="1" stop-color="white"/>
</linearGradient>
<linearGradient id="paint15_linear_86_5070" x1="19.5466" y1="11.1605" x2="15.8857" y2="13.1517" gradientUnits="userSpaceOnUse">
<stop stop-color="#FFAA6E"/>
<stop offset="0.51" stop-color="#FF8CF9"/>
<stop offset="1" stop-color="#9080FF"/>
</linearGradient>
<linearGradient id="paint16_linear_86_5070" x1="6.16757" y1="14.2878" x2="10.6667" y2="18.5244" gradientUnits="userSpaceOnUse">
<stop stop-color="#FFAA6E"/>
<stop offset="0.51" stop-color="#FF8CF9"/>
<stop offset="1" stop-color="#9080FF"/>
</linearGradient>
<linearGradient id="paint17_linear_86_5070" x1="7.68362" y1="14.7782" x2="10.8062" y2="16.3821" gradientUnits="userSpaceOnUse">
<stop stop-color="#808080"/>
<stop offset="1" stop-color="white"/>
</linearGradient>
<linearGradient id="paint18_linear_86_5070" x1="5.95228" y1="14.9268" x2="8.47097" y2="16.2204" gradientUnits="userSpaceOnUse">
<stop stop-color="#808080"/>
<stop offset="1" stop-color="white"/>
</linearGradient>
<linearGradient id="paint19_linear_86_5070" x1="7.98762" y1="17.5979" x2="10.3146" y2="18.7931" gradientUnits="userSpaceOnUse">
<stop stop-color="#808080"/>
<stop offset="1" stop-color="white"/>
</linearGradient>
<linearGradient id="paint20_linear_86_5070" x1="10.405" y1="16.149" x2="3.43727" y2="16.3149" gradientUnits="userSpaceOnUse">
<stop stop-color="#FFAA6E"/>
<stop offset="0.51" stop-color="#FF8CF9"/>
<stop offset="1" stop-color="#9080FF"/>
</linearGradient>
<linearGradient id="paint21_linear_86_5070" x1="6.87951" y1="8.63927" x2="10.6985" y2="8.63927" gradientUnits="userSpaceOnUse">
<stop stop-color="#FFEFE3"/>
<stop offset="1" stop-color="#FFDFC9"/>
</linearGradient>
<linearGradient id="paint22_linear_86_5070" x1="8.56946" y1="9.5577" x2="9.73096" y2="9.14381" gradientUnits="userSpaceOnUse">
<stop stop-color="#E3CDB6"/>
<stop offset="1" stop-color="#FFDFC9"/>
</linearGradient>
<linearGradient id="paint23_linear_86_5070" x1="9.15991" y1="8.25619" x2="9.45307" y2="8.25619" gradientUnits="userSpaceOnUse">
<stop stop-color="#E3CDB6"/>
<stop offset="1" stop-color="#FFDFC9"/>
</linearGradient>
<linearGradient id="paint24_linear_86_5070" x1="7.69968" y1="9.1778" x2="7.88587" y2="9.1778" gradientUnits="userSpaceOnUse">
<stop stop-color="#E3CDB6"/>
<stop offset="1" stop-color="#FFDFC9"/>
</linearGradient>
<linearGradient id="paint25_linear_86_5070" x1="10.0247" y1="9.11035" x2="10.2123" y2="9.11035" gradientUnits="userSpaceOnUse">
<stop stop-color="#E3CDB6"/>
<stop offset="1" stop-color="#FFDFC9"/>
</linearGradient>
<linearGradient id="paint26_linear_86_5070" x1="9.56735" y1="7.60175" x2="9.75354" y2="7.60175" gradientUnits="userSpaceOnUse">
<stop stop-color="#E3CDB6"/>
<stop offset="1" stop-color="#FFDFC9"/>
</linearGradient>
<linearGradient id="paint27_linear_86_5070" x1="8.37402" y1="7.92755" x2="8.78748" y2="7.92755" gradientUnits="userSpaceOnUse">
<stop stop-color="#E3CDB6"/>
<stop offset="1" stop-color="#FFDFC9"/>
</linearGradient>
<linearGradient id="paint28_linear_86_5070" x1="9.95728" y1="9.89683" x2="10.6258" y2="9.89683" gradientUnits="userSpaceOnUse">
<stop stop-color="#E3CDB6"/>
<stop offset="1" stop-color="#FFDFC9"/>
</linearGradient>
<linearGradient id="paint29_linear_86_5070" x1="7.71289" y1="9.76036" x2="8.07064" y2="9.76036" gradientUnits="userSpaceOnUse">
<stop stop-color="#E3CDB6"/>
<stop offset="1" stop-color="#FFDFC9"/>
</linearGradient>
<linearGradient id="paint30_linear_86_5070" x1="8.26267" y1="10.318" x2="9.31378" y2="10.318" gradientUnits="userSpaceOnUse">
<stop stop-color="#E3CDB6"/>
<stop offset="1" stop-color="#FFDFC9"/>
</linearGradient>
<linearGradient id="paint31_linear_86_5070" x1="6.99074" y1="8.18602" x2="7.37656" y2="8.27596" gradientUnits="userSpaceOnUse">
<stop stop-color="#E3CDB6"/>
<stop offset="1" stop-color="#FFDFC9"/>
</linearGradient>
<linearGradient id="paint32_linear_86_5070" x1="10.0062" y1="8.33648" x2="10.5691" y2="8.19348" gradientUnits="userSpaceOnUse">
<stop stop-color="#E3CDB6"/>
<stop offset="1" stop-color="#FFDFC9"/>
</linearGradient>
<linearGradient id="paint33_linear_86_5070" x1="7.91354" y1="8.02574" x2="8.1173" y2="8.02574" gradientUnits="userSpaceOnUse">
<stop stop-color="#E3CDB6"/>
<stop offset="1" stop-color="#FFDFC9"/>
</linearGradient>
<linearGradient id="paint34_linear_86_5070" x1="8.06473" y1="7.51658" x2="8.42385" y2="7.51658" gradientUnits="userSpaceOnUse">
<stop stop-color="#E3CDB6"/>
<stop offset="1" stop-color="#FFDFC9"/>
</linearGradient>
<linearGradient id="paint35_linear_86_5070" x1="11.0421" y1="13.5026" x2="4.15012" y2="14.3681" gradientUnits="userSpaceOnUse">
<stop stop-color="#121324"/>
<stop offset="0.56" stop-color="#7C69FF"/>
<stop offset="1" stop-color="#69E6FF"/>
</linearGradient>
</defs>
</svg>
