<svg width="1440" height="1064" viewBox="0 0 1440 1064" fill="none" xmlns="http://www.w3.org/2000/svg">
<path opacity="0.3" d="M-335.355 799.492C-319.348 862.702 -274.563 915.479 -207.204 956.782C-139.843 998.086 -49.9324 1027.9 56.2535 1045.18C268.624 1079.73 546.006 1064.14 838.052 990.183C1130.1 916.227 1381.47 797.923 1551.8 666.455C1636.96 600.72 1701.85 531.708 1741.43 463.322C1781.01 394.938 1795.28 327.206 1779.28 263.996C1763.27 200.786 1718.48 148.009 1651.12 106.706C1583.76 65.4015 1493.85 35.5892 1387.67 18.3111C1175.3 -16.2451 897.914 -0.650939 605.868 73.305C313.822 147.261 62.4493 265.565 -107.878 397.033C-193.043 462.768 -257.927 531.779 -297.511 600.166C-337.093 668.55 -351.362 736.281 -335.355 799.492Z" stroke="url(#paint0_linear_86_4595)" stroke-width="0.917323"/>
<defs>
<linearGradient id="paint0_linear_86_4595" x1="1705.63" y1="227.588" x2="-125.499" y2="987.258" gradientUnits="userSpaceOnUse">
<stop stop-color="#D9CBCB"/>
<stop offset="0.614583" stop-color="#282828" stop-opacity="0.36"/>
<stop offset="1" stop-color="#CEC0C0" stop-opacity="0.35"/>
</linearGradient>
</defs>
</svg>
