<svg width="1440" height="772" viewBox="0 0 1440 772" fill="none" xmlns="http://www.w3.org/2000/svg">
<path opacity="0.3" d="M-44.4623 579.828C-32.8678 625.614 -0.425424 663.853 48.3901 693.785C97.2081 723.72 162.375 745.329 239.349 757.854C393.295 782.904 594.378 771.6 806.096 717.986C1017.81 664.372 1200.04 578.609 1323.51 483.308C1385.25 435.657 1432.27 385.636 1460.96 336.075C1489.65 286.516 1499.98 237.446 1488.38 191.66C1476.79 145.873 1444.35 107.635 1395.53 77.7021C1346.71 47.7678 1281.55 26.1582 1204.57 13.6333C1050.63 -11.4163 849.545 -0.113028 637.826 53.5013C426.108 107.116 243.881 192.879 120.412 288.179C58.6764 335.83 11.6485 385.851 -17.0386 435.412C-45.7242 484.971 -56.0569 534.042 -44.4623 579.828Z" stroke="url(#paint0_linear_86_4593)" stroke-width="0.917323"/>
<defs>
<linearGradient id="paint0_linear_86_4593" x1="1435.12" y1="165.233" x2="107.559" y2="715.988" gradientUnits="userSpaceOnUse">
<stop stop-color="#D9CBCB"/>
<stop offset="0.614583" stop-color="#282828" stop-opacity="0.36"/>
<stop offset="1" stop-color="#CEC0C0" stop-opacity="0.35"/>
</linearGradient>
</defs>
</svg>
