<svg width="1063" height="531" viewBox="0 0 1063 531" fill="none" xmlns="http://www.w3.org/2000/svg">
<path opacity="0.3" d="M4.59943 399.29C12.5678 430.756 34.8662 457.047 68.4425 477.636C102.021 498.226 146.854 513.094 199.821 521.713C305.753 538.95 444.13 531.173 589.834 494.276C735.538 457.378 860.939 398.358 945.9 332.781C988.381 299.991 1020.73 265.577 1040.47 231.487C1060.2 197.399 1067.29 163.664 1059.33 132.198C1051.36 100.731 1029.06 74.4401 995.482 53.8517C961.904 33.2618 917.071 18.3933 864.104 9.77472C758.172 -7.46215 619.795 0.314736 474.091 37.2119C328.387 74.109 202.986 133.13 118.025 198.707C75.5441 231.496 43.1914 265.911 23.4593 300.001C3.72874 334.088 -3.36898 367.823 4.59943 399.29Z" stroke="url(#paint0_linear_86_4588)" stroke-width="0.917323"/>
<defs>
<linearGradient id="paint0_linear_86_4588" x1="1022.8" y1="113.974" x2="109.092" y2="493.039" gradientUnits="userSpaceOnUse">
<stop stop-color="#D9CBCB"/>
<stop offset="0.614583" stop-color="#282828" stop-opacity="0.36"/>
<stop offset="1" stop-color="#CEC0C0" stop-opacity="0.35"/>
</linearGradient>
</defs>
</svg>
