<svg width="50" height="50" viewBox="0 0 50 50" fill="none" xmlns="http://www.w3.org/2000/svg">
<rect x="1" y="1" width="48" height="48" rx="8" fill="#B8B7FF" fill-opacity="0.05"/>
<path d="M16.23 14H24.36C25.04 14 25.59 14.56 25.59 15.25V16.62C25.59 17.12 25.28 17.74 24.97 18.05L22.33 20.43C21.96 20.74 21.72 21.36 21.72 21.86V24.54C21.72 24.91 21.47 25.41 21.17 25.6L20.3 26.17C19.5 26.67 18.39 26.11 18.39 25.11V21.8C18.39 21.36 18.14 20.8 17.9 20.49L15.56 17.99C15.25 17.68 15 17.12 15 16.75V15.31C15 14.56 15.55 14 16.23 14Z" fill="white"/>
<path d="M30 15H27.6C27.32 15 27.1 15.22 27.1 15.5C27.1 15.98 27.1 16.62 27.1 16.62C27.1 17.61 26.57 18.58 26.05 19.11L23.33 21.54C23.3 21.61 23.25 21.71 23.22 21.79V24.54C23.22 25.45 22.68 26.44 21.94 26.89L21.12 27.42C20.66 27.71 20.15 27.85 19.64 27.85C19.18 27.85 18.72 27.73 18.3 27.5C17.7825 27.2134 17.3918 26.781 17.1531 26.2736C17.0311 26.0143 17 25.7245 17 25.438V23.21C17 23.08 16.95 22.95 16.85 22.86L15.85 21.86C15.54 21.54 15 21.76 15 22.21V30C15 32.76 17.24 35 20 35H30C32.76 35 35 32.76 35 30V20C35 17.24 32.76 15 30 15ZM31 30.75H24C23.59 30.75 23.25 30.41 23.25 30C23.25 29.59 23.59 29.25 24 29.25H31C31.41 29.25 31.75 29.59 31.75 30C31.75 30.41 31.41 30.75 31 30.75ZM31 26.75H26C25.59 26.75 25.25 26.41 25.25 26C25.25 25.59 25.59 25.25 26 25.25H31C31.41 25.25 31.75 25.59 31.75 26C31.75 26.41 31.41 26.75 31 26.75Z" fill="white"/>
<rect x="1" y="1" width="48" height="48" rx="8" stroke="url(#paint0_linear_86_4752)"/>
<defs>
<linearGradient id="paint0_linear_86_4752" x1="1" y1="1" x2="49" y2="49" gradientUnits="userSpaceOnUse">
<stop stop-color="#00D1FF"/>
<stop offset="1" stop-color="#713FFE"/>
</linearGradient>
</defs>
</svg>
