<svg width="49" height="50" viewBox="0 0 49 50" fill="none" xmlns="http://www.w3.org/2000/svg">
<rect y="1" width="48" height="48" rx="8" fill="#B8B7FF" fill-opacity="0.05"/>
<path d="M34 17.85V29.74C34 30.71 33.21 31.6 32.24 31.72L31.93 31.76C30.29 31.98 27.98 32.66 26.12 33.44C25.47 33.71 24.75 33.22 24.75 32.51V18.6C24.75 18.23 24.96 17.89 25.29 17.71C27.12 16.72 29.89 15.84 31.77 15.68H31.83C33.03 15.68 34 16.65 34 17.85Z" fill="white"/>
<path d="M22.71 17.71C20.88 16.72 18.11 15.84 16.23 15.68H16.16C14.96 15.68 13.99 16.65 13.99 17.85V29.74C13.99 30.71 14.78 31.6 15.75 31.72L16.06 31.76C17.7 31.98 20.01 32.66 21.87 33.44C22.52 33.71 23.24 33.22 23.24 32.51V18.6C23.24 18.22 23.04 17.89 22.71 17.71ZM17 20.74H19.25C19.66 20.74 20 21.08 20 21.49C20 21.91 19.66 22.24 19.25 22.24H17C16.59 22.24 16.25 21.91 16.25 21.49C16.25 21.08 16.59 20.74 17 20.74ZM20 25.24H17C16.59 25.24 16.25 24.91 16.25 24.49C16.25 24.08 16.59 23.74 17 23.74H20C20.41 23.74 20.75 24.08 20.75 24.49C20.75 24.91 20.41 25.24 20 25.24Z" fill="white"/>
<rect y="1" width="48" height="48" rx="8" stroke="url(#paint0_linear_86_4714)"/>
<defs>
<linearGradient id="paint0_linear_86_4714" x1="0" y1="1" x2="48" y2="49" gradientUnits="userSpaceOnUse">
<stop stop-color="#00D1FF"/>
<stop offset="1" stop-color="#713FFE"/>
</linearGradient>
</defs>
</svg>
