<svg width="50" height="50" viewBox="0 0 50 50" fill="none" xmlns="http://www.w3.org/2000/svg">
<rect x="1" y="1" width="48" height="48" rx="8" fill="#B8B7FF" fill-opacity="0.05"/>
<path d="M31.9401 18.42L26.7701 15.43C25.7801 14.86 24.2301 14.86 23.2401 15.43L18.0201 18.44C15.9501 19.84 15.8301 20.05 15.8301 22.28V27.71C15.8301 29.94 15.9501 30.16 18.0601 31.58L23.2301 34.57C23.7301 34.86 24.3701 35 25.0001 35C25.6301 35 26.2701 34.86 26.7601 34.57L31.9801 31.56C34.0501 30.16 34.1701 29.95 34.1701 27.72V22.28C34.1701 20.05 34.0501 19.84 31.9401 18.42ZM25.0001 28.25C23.2101 28.25 21.7501 26.79 21.7501 25C21.7501 23.21 23.2101 21.75 25.0001 21.75C26.7901 21.75 28.2501 23.21 28.2501 25C28.2501 26.79 26.7901 28.25 25.0001 28.25Z" fill="white"/>
<rect x="1" y="1" width="48" height="48" rx="8" stroke="url(#paint0_linear_86_4725)"/>
<defs>
<linearGradient id="paint0_linear_86_4725" x1="1" y1="1" x2="49" y2="49" gradientUnits="userSpaceOnUse">
<stop stop-color="#00D1FF"/>
<stop offset="1" stop-color="#713FFE"/>
</linearGradient>
</defs>
</svg>
