<svg width="49" height="50" viewBox="0 0 49 50" fill="none" xmlns="http://www.w3.org/2000/svg">
<rect y="1" width="48" height="48" rx="8" fill="#B8B7FF" fill-opacity="0.05"/>
<path d="M29.6 18.31L23.95 15.27C23.35 14.95 22.64 14.95 22.04 15.27L16.4 18.31C15.99 18.54 15.73 18.98 15.73 19.46C15.73 19.95 15.98 20.39 16.4 20.61L22.05 23.65C22.35 23.81 22.68 23.89 23 23.89C23.32 23.89 23.66 23.81 23.95 23.65L29.6 20.61C30.01 20.39 30.27 19.95 30.27 19.46C30.27 18.98 30.01 18.54 29.6 18.31Z" fill="white"/>
<path d="M21.12 24.71L15.87 22.09C15.46 21.88 15 21.91 14.61 22.14C14.23 22.38 14 22.79 14 23.24V28.2C14 29.06 14.48 29.83 15.25 30.22L20.5 32.84C20.68 32.93 20.88 32.98 21.08 32.98C21.31 32.98 21.55 32.91 21.76 32.79C22.14 32.55 22.37 32.14 22.37 31.69V26.73C22.36 25.87 21.88 25.1 21.12 24.71Z" fill="white"/>
<path d="M31.9999 23.24V25.7C31.5199 25.56 31.0099 25.5 30.4999 25.5C29.1399 25.5 27.8099 25.97 26.7599 26.81C25.3199 27.94 24.4999 29.65 24.4999 31.5C24.4999 31.99 24.5599 32.48 24.6899 32.95C24.5399 32.93 24.3899 32.87 24.2499 32.78C23.8699 32.55 23.6399 32.14 23.6399 31.69V26.73C23.6399 25.87 24.1199 25.1 24.8799 24.71L30.1299 22.09C30.5399 21.88 30.9999 21.91 31.3899 22.14C31.7699 22.38 31.9999 22.79 31.9999 23.24Z" fill="white"/>
<path d="M34.58 34.5L33.74 33.66C34.18 33 34.44 32.2 34.44 31.35C34.44 29.02 32.55 27.13 30.22 27.13C27.89 27.13 26 29.02 26 31.35C26 33.68 27.89 35.57 30.22 35.57C31.07 35.57 31.87 35.31 32.53 34.87L33.37 35.71C33.54 35.88 33.75 35.96 33.97 35.96C34.19 35.96 34.41 35.88 34.57 35.71C34.91 35.37 34.91 34.83 34.58 34.5Z" fill="white"/>
<rect y="1" width="48" height="48" rx="8" stroke="url(#paint0_linear_86_4737)"/>
<defs>
<linearGradient id="paint0_linear_86_4737" x1="0" y1="1" x2="48" y2="49" gradientUnits="userSpaceOnUse">
<stop stop-color="#00D1FF"/>
<stop offset="1" stop-color="#713FFE"/>
</linearGradient>
</defs>
</svg>
