<svg width="24" height="25" viewBox="0 0 24 25" fill="none" xmlns="http://www.w3.org/2000/svg">
<path fill-rule="evenodd" clip-rule="evenodd" d="M12 2.5C6.477 2.5 2 6.984 2 12.517C2 16.942 4.865 20.697 8.839 22.021C9.339 22.113 9.521 21.804 9.521 21.538C9.521 21.301 9.513 20.67 9.508 19.835C6.726 20.44 6.139 18.492 6.139 18.492C5.685 17.334 5.029 17.026 5.029 17.026C4.121 16.406 5.098 16.418 5.098 16.418C6.101 16.488 6.629 17.45 6.629 17.45C7.521 18.98 8.97 18.538 9.539 18.282C9.631 17.635 9.889 17.194 10.175 16.944C7.955 16.691 5.62 15.831 5.62 11.993C5.62 10.9 6.01 10.005 6.649 9.305C6.546 9.052 6.203 8.033 6.747 6.655C6.747 6.655 7.587 6.385 9.497 7.681C10.3128 7.45851 11.1544 7.34519 12 7.344C12.85 7.348 13.705 7.459 14.504 7.681C16.413 6.385 17.251 6.654 17.251 6.654C17.797 8.033 17.453 9.052 17.351 9.305C17.991 10.005 18.379 10.9 18.379 11.993C18.379 15.841 16.04 16.688 13.813 16.936C14.172 17.245 14.491 17.856 14.491 18.791C14.491 20.129 14.479 21.21 14.479 21.538C14.479 21.806 14.659 22.118 15.167 22.02C17.1583 21.3521 18.8893 20.0753 20.1155 18.37C21.3416 16.6648 22.0009 14.6173 22 12.517C22 6.984 17.522 2.5 12 2.5Z" fill="#9CA3AF"/>
</svg>
