<svg width="19" height="19" viewBox="0 0 19 19" fill="none" xmlns="http://www.w3.org/2000/svg">
<path fill-rule="evenodd" clip-rule="evenodd" d="M15.6033 15.2676H13.2069V11.5149C13.2069 10.6212 13.1916 9.46971 11.9611 9.46971C10.7126 9.46971 10.5231 10.4452 10.5231 11.452V15.2676H8.12666V7.55204H10.4252V8.60654H10.4584C10.7782 8.00025 11.5605 7.36073 12.7273 7.36073C15.1551 7.36073 15.6042 8.95773 15.6042 11.0362V15.2676H15.6033ZM5.42397 6.49845C5.24137 6.49863 5.06053 6.46284 4.89177 6.39313C4.72301 6.32342 4.56963 6.22115 4.4404 6.09216C4.31116 5.96317 4.20859 5.80999 4.13855 5.64137C4.06852 5.47274 4.03238 5.29197 4.0322 5.10938C4.03202 4.92679 4.06781 4.74595 4.13752 4.57719C4.20723 4.40843 4.3095 4.25505 4.43849 4.12581C4.56748 3.99657 4.72066 3.89401 4.88928 3.82397C5.05791 3.75393 5.23868 3.71779 5.42127 3.71761C5.79003 3.71726 6.14383 3.8634 6.40484 4.12391C6.66585 4.38441 6.81268 4.73792 6.81304 5.10668C6.81339 5.47545 6.66725 5.82925 6.40675 6.09025C6.14624 6.35126 5.79273 6.49809 5.42397 6.49845ZM4.22307 15.2676H6.62307V7.55204H4.22217V15.2676H4.22307ZM16.7979 1.49097H3.01947C2.36109 1.49097 1.82666 2.01282 1.82666 2.65684V16.4919C1.82666 17.1359 2.36109 17.6586 3.01947 17.6586H16.7979C17.4572 17.6586 17.9943 17.1359 17.9943 16.4919V2.65684C17.9943 2.01282 17.4572 1.49097 16.7979 1.49097Z" fill="#BCC5D7"/>
</svg>
