<svg width="821" height="1000" viewBox="0 0 821 1285" fill="none" xmlns="http://www.w3.org/2000/svg">
<g opacity="0.09">
<path opacity="0.0344828" d="M1012.63 1094.82C1019.65 1088.53 1023.8 1079.28 1025.2 1067.3C1026.6 1055.32 1025.24 1040.68 1021.27 1023.7C1013.33 989.757 995.006 946.679 967.873 897.376C913.613 798.782 824.207 675.464 712.509 550.807C600.811 426.151 488.006 323.799 395.935 259.086C349.894 226.725 309.077 203.805 276.201 192.201C259.763 186.399 245.353 183.442 233.292 183.524C221.239 183.607 211.588 186.723 204.57 193.011C197.552 199.299 193.4 208.552 192 220.524C190.599 232.503 191.964 247.15 195.934 264.124C203.874 298.072 222.195 341.15 249.328 390.453C303.587 489.046 392.994 612.365 504.692 737.021C616.39 861.678 729.195 964.03 821.266 1028.74C867.307 1061.1 908.124 1084.02 941 1095.63C957.438 1101.43 971.848 1104.39 983.908 1104.3C995.961 1104.22 1005.61 1101.11 1012.63 1094.82Z" stroke="#C7C9DC" stroke-width="1.71934"/>
<path opacity="0.0689655" d="M1055.23 1057.73C1061.67 1050.86 1065 1041.28 1065.35 1029.23C1065.7 1017.17 1063.07 1002.7 1057.63 986.136C1046.76 953.01 1024.76 911.692 993.433 864.942C930.787 771.452 830.973 656.395 708.835 541.948C586.698 427.501 465.401 335.37 368.041 278.928C319.354 250.704 276.695 231.428 242.933 222.734C226.051 218.386 211.439 216.696 199.431 217.829C187.431 218.962 178.088 222.908 171.645 229.784C165.202 236.659 161.872 246.239 161.521 258.288C161.17 270.343 163.805 284.815 169.24 301.379C180.108 334.505 202.114 375.822 233.441 422.573C296.087 516.062 395.901 631.119 518.038 745.566C640.176 860.013 761.472 952.144 858.833 1008.59C907.519 1036.81 950.178 1056.09 983.94 1064.78C1000.82 1069.13 1015.43 1070.82 1027.44 1069.69C1039.44 1068.55 1048.79 1064.61 1055.23 1057.73Z" stroke="#C7C9DC" stroke-width="1.71934"/>
<path opacity="0.103448" d="M1094.47 1017.49C1100.29 1010.08 1102.77 1000.25 1102.07 988.216C1101.37 976.175 1097.48 961.988 1090.62 945.961C1076.91 913.908 1051.39 874.666 1016.1 830.824C945.547 743.15 836.085 637.23 704.438 533.864C572.79 430.497 443.926 349.289 342.016 301.547C291.055 277.673 246.878 262.189 212.487 256.47C195.291 253.61 180.586 253.2 168.723 255.376C156.868 257.55 147.904 262.295 142.085 269.706C136.265 277.117 133.783 286.951 134.483 298.984C135.184 311.024 139.071 325.212 145.929 341.239C159.643 373.291 185.166 412.534 220.448 456.376C291.004 544.05 400.466 649.969 532.113 753.336C663.761 856.703 792.625 937.911 894.535 985.653C945.496 1009.53 989.673 1025.01 1024.06 1030.73C1041.26 1033.59 1055.96 1034 1067.83 1031.82C1079.68 1029.65 1088.65 1024.9 1094.47 1017.49Z" stroke="#C7C9DC" stroke-width="1.71934"/>
<path opacity="0.137931" d="M1130.08 974.411C1135.23 966.521 1136.85 956.508 1135.1 944.582C1133.35 932.649 1128.24 918.854 1120.02 903.486C1103.56 872.75 1074.71 835.882 1035.74 795.281C957.816 714.09 839.54 618.114 699.384 526.615C559.228 435.115 423.777 365.447 318.094 326.769C265.246 307.427 219.888 295.853 185.129 293.153C167.749 291.803 153.065 292.676 141.437 295.877C129.815 299.076 121.299 304.584 116.148 312.475C110.997 320.365 109.381 330.377 111.127 342.304C112.875 354.237 117.984 368.032 126.212 383.4C142.668 414.135 171.513 451.004 210.483 491.604C288.411 572.795 406.688 668.772 546.844 760.271C686.999 851.77 822.451 921.439 928.134 960.117C980.982 979.458 1026.34 991.033 1061.1 993.733C1078.48 995.083 1093.16 994.21 1104.79 991.009C1116.41 987.809 1124.93 982.301 1130.08 974.411Z" stroke="#C7C9DC" stroke-width="1.71934"/>
<path opacity="0.172414" d="M1161.83 928.809C1166.28 920.5 1167.01 910.385 1164.24 898.656C1161.45 886.921 1155.16 873.624 1145.63 859.031C1126.55 829.847 1094.6 795.633 1052.25 758.583C967.537 684.493 841.346 599.191 693.749 520.255C546.152 441.319 405.143 383.721 296.492 354.401C242.159 339.739 195.965 332.161 161.103 332.502C143.672 332.672 129.119 334.821 117.814 339.023C106.516 343.223 98.5124 349.453 94.0687 357.762C89.6249 366.071 88.8875 376.186 91.6668 387.915C94.4479 399.651 100.739 412.948 110.276 427.54C129.348 456.724 161.297 490.938 203.656 527.988C288.365 602.078 414.556 687.381 562.153 766.317C709.75 845.252 850.759 902.85 959.41 932.17C1013.74 946.832 1059.94 954.41 1094.8 954.07C1112.23 953.9 1126.78 951.75 1138.09 947.548C1149.39 943.348 1157.39 937.119 1161.83 928.809Z" stroke="#C7C9DC" stroke-width="1.71934"/>
<path opacity="0.206897" d="M1189.53 881.035C1193.23 872.37 1193.08 862.229 1189.29 850.787C1185.5 839.338 1178.07 826.64 1167.3 812.934C1145.76 785.523 1110.95 754.224 1065.52 721.007C974.675 654.582 841.529 580.602 687.614 514.831C533.699 449.059 388.207 403.97 277.413 384.232C222.01 374.361 175.331 370.838 140.631 374.215C123.281 375.904 108.971 379.314 98.0756 384.485C87.1866 389.654 79.7561 396.557 76.0534 405.222C72.3508 413.887 72.4977 424.028 76.2888 435.47C80.0821 446.918 87.5085 459.616 98.2803 473.322C119.823 500.733 154.633 532.032 200.06 565.249C290.904 631.674 424.05 705.654 577.965 771.426C731.88 837.197 877.371 882.286 988.165 902.025C1043.57 911.896 1090.25 915.418 1124.95 912.041C1142.3 910.353 1156.61 906.943 1167.5 901.771C1178.39 896.603 1185.82 889.699 1189.53 881.035Z" stroke="#C7C9DC" stroke-width="1.71934"/>
<path opacity="0.241379" d="M1212.98 831.449C1215.91 822.495 1214.88 812.405 1210.11 801.337C1205.33 790.263 1196.83 778.26 1184.9 765.546C1161.05 740.117 1123.65 711.97 1075.5 682.839C979.212 624.584 840.125 562.49 681.063 510.384C522.001 458.277 373.134 426.04 261.041 416.033C204.988 411.028 158.18 411.587 123.906 417.976C106.769 421.17 92.8114 425.814 82.408 431.916C72.0109 438.014 65.2103 445.538 62.2769 454.493C59.3435 463.447 60.3738 473.537 65.1476 484.605C69.9243 495.679 78.4292 507.682 90.3546 520.397C114.205 545.826 151.61 573.972 199.759 603.103C296.046 661.358 435.133 723.452 594.195 775.559C753.257 827.665 902.125 859.902 1014.22 869.91C1070.27 874.914 1117.08 874.355 1151.35 867.966C1168.49 864.772 1182.45 860.128 1192.85 854.027C1203.25 847.928 1210.05 840.404 1212.98 831.449Z" stroke="#C7C9DC" stroke-width="1.71934"/>
<path opacity="0.275862" d="M1232.05 780.43C1234.2 771.254 1232.29 761.292 1226.57 750.682C1220.85 740.066 1211.33 728.851 1198.34 717.224C1172.36 693.97 1132.65 669.191 1082.14 644.367C981.145 594.726 837.175 544.991 674.177 506.945C511.179 468.9 360.068 449.761 247.53 449.561C191.254 449.461 144.673 454.097 111.087 463.448C94.2934 468.124 80.7932 473.967 70.9612 480.952C61.1351 487.933 55.0163 496.022 52.8745 505.198C50.7327 514.374 52.6384 524.336 58.3587 534.945C64.0824 545.561 73.601 556.777 86.5892 568.404C112.565 591.657 152.281 616.437 202.786 641.26C303.784 690.902 447.753 740.637 610.751 778.682C773.749 816.727 924.86 835.867 1037.4 836.067C1093.67 836.167 1140.26 831.53 1173.84 822.179C1190.64 817.503 1204.14 811.661 1213.97 804.675C1223.79 797.694 1229.91 789.606 1232.05 780.43Z" stroke="#C7C9DC" stroke-width="1.71934"/>
<path opacity="0.310345" d="M1246.64 728.362C1247.98 719.035 1245.21 709.277 1238.59 699.206C1231.96 689.13 1221.5 678.786 1207.55 668.335C1179.64 647.434 1137.92 626.211 1085.44 605.883C980.503 565.233 832.746 528.235 667.053 504.541C501.36 480.847 349.155 474.95 237.028 484.559C180.958 489.365 134.957 498.043 102.314 510.286C85.9922 516.408 73.0526 523.405 63.8669 531.22C54.6866 539.031 49.296 547.622 47.9621 556.95C46.6282 566.278 49.3949 576.036 56.0181 586.106C62.6453 596.183 73.1052 606.526 87.0573 616.977C114.961 637.878 156.685 659.102 209.162 679.429C314.102 720.079 461.858 757.078 627.552 780.772C793.245 804.466 945.449 810.363 1057.58 800.753C1113.65 795.948 1159.65 787.269 1192.29 775.026C1208.61 768.905 1221.55 761.908 1230.74 754.092C1239.92 746.281 1245.31 737.69 1246.64 728.362Z" stroke="#C7C9DC" stroke-width="1.71934"/>
<path opacity="0.344828" d="M1256.67 675.643C1257.19 666.234 1253.58 656.755 1246.1 647.3C1238.62 637.839 1227.3 628.447 1212.49 619.252C1182.87 600.862 1139.46 583.356 1085.41 567.679C977.325 536.33 826.906 512.351 659.778 503.188C492.651 494.025 340.512 501.416 229.649 520.761C174.21 530.435 129.141 543.09 97.6894 558.131C81.9631 565.652 69.6826 573.75 61.213 582.337C52.7484 590.918 48.1271 599.946 47.6112 609.355C47.0954 618.764 50.702 628.243 58.1777 637.698C65.6579 647.159 76.9795 656.551 91.7893 665.746C121.408 684.136 164.824 701.642 218.872 717.318C326.956 748.668 477.375 772.647 644.503 781.81C811.631 790.973 963.769 783.582 1074.63 764.237C1130.07 754.563 1175.14 741.908 1206.59 726.866C1222.32 719.346 1234.6 711.247 1243.07 702.661C1251.53 694.08 1256.15 685.052 1256.67 675.643Z" stroke="#C7C9DC" stroke-width="1.71934"/>
<path opacity="0.37931" d="M1262.1 622.671C1261.79 613.254 1257.37 604.125 1249.1 595.357C1240.82 586.584 1228.73 578.214 1213.17 570.345C1182.06 554.607 1137.29 540.951 1082.08 530.045C971.674 508.235 819.738 497.457 652.447 502.895C485.156 508.333 334.241 528.956 225.486 557.89C171.101 572.359 127.307 588.893 97.2855 606.619C82.2746 615.482 70.7466 624.619 63.0575 633.911C55.3731 643.197 51.5562 652.594 51.8623 662.012C52.1685 671.43 56.5875 680.559 64.8589 689.326C73.1352 698.099 85.2322 706.469 100.787 714.338C131.896 730.076 176.672 743.732 231.881 754.638C342.286 776.448 494.222 787.226 661.513 781.788C828.803 776.35 979.719 755.727 1088.47 726.793C1142.86 712.325 1186.65 695.79 1216.67 678.065C1231.69 669.202 1243.21 660.064 1250.9 650.772C1258.59 641.486 1262.4 632.089 1262.1 622.671Z" stroke="#C7C9DC" stroke-width="1.71934"/>
<path opacity="0.413793" d="M1262.92 569.849C1261.79 560.494 1256.6 551.785 1247.59 543.771C1238.58 535.753 1225.8 528.47 1209.62 521.986C1177.26 509.019 1131.46 499.318 1075.51 493.265C963.628 481.161 811.331 483.665 645.151 503.663C478.97 523.661 330.426 557.359 224.607 595.661C171.691 614.814 129.504 635.103 101.142 655.378C86.9604 665.515 76.2727 675.623 69.4227 685.549C62.5768 695.47 59.5934 705.164 60.7192 714.519C61.845 723.874 67.0429 732.583 76.0469 740.597C85.0564 748.615 97.8368 755.898 114.018 762.382C146.381 775.349 192.176 785.05 248.126 791.103C360.011 803.208 512.309 800.703 678.489 780.705C844.669 760.708 993.213 727.01 1099.03 688.707C1151.95 669.554 1194.14 649.265 1222.5 628.991C1236.68 618.853 1247.37 608.745 1254.22 598.819C1261.06 588.898 1264.05 579.204 1262.92 569.849Z" stroke="#C7C9DC" stroke-width="1.71934"/>
<path opacity="0.448276" d="M1259.17 517.578C1257.23 508.356 1251.29 500.133 1241.62 492.935C1231.95 485.733 1218.58 479.591 1201.9 474.542C1168.53 464.445 1122.06 458.772 1065.8 457.619C953.284 455.312 801.784 471.081 637.979 505.486C474.175 539.891 329.133 586.407 227.054 633.786C176.009 657.479 135.751 681.367 109.264 704.037C96.0197 715.371 86.2537 726.372 80.2949 736.858C74.3397 747.338 72.2126 757.254 74.1494 766.476C76.0863 775.697 82.0235 783.92 91.6916 791.118C101.366 798.321 114.732 804.463 131.417 809.511C164.787 819.609 211.254 825.282 267.518 826.435C380.032 828.742 531.532 812.973 695.337 778.568C859.142 744.163 1004.18 697.647 1106.26 650.267C1157.31 626.575 1197.57 602.686 1224.05 580.017C1237.3 568.682 1247.06 557.682 1253.02 547.196C1258.98 536.716 1261.1 526.799 1259.17 517.578Z" stroke="#C7C9DC" stroke-width="1.71934"/>
<path opacity="0.482759" d="M1250.9 466.254C1248.17 457.236 1241.54 449.562 1231.28 443.234C1221.01 436.902 1207.16 431.948 1190.1 428.373C1155.98 421.223 1109.19 419.621 1053.04 423.376C940.756 430.884 791.207 459.797 631.024 508.348C470.841 556.898 330.405 615.879 232.845 671.975C184.058 700.026 146.036 727.332 121.625 752.224C109.419 764.67 100.649 776.48 95.627 787.445C90.6079 798.404 89.3531 808.468 92.0863 817.486C94.8195 826.503 101.451 834.178 111.709 840.506C121.974 846.838 135.825 851.791 152.887 855.366C187.009 862.517 233.794 864.118 289.945 860.364C402.232 852.855 551.781 823.943 711.964 775.392C872.147 726.841 1012.58 667.861 1110.14 611.765C1158.93 583.714 1196.95 556.407 1221.36 531.516C1233.57 519.07 1242.34 507.26 1247.36 496.295C1252.38 485.336 1253.63 475.271 1250.9 466.254Z" stroke="#C7C9DC" stroke-width="1.71934"/>
<path opacity="0.517241" d="M1238.23 416.266C1234.72 407.521 1227.45 400.454 1216.68 395.044C1205.9 389.631 1191.67 385.903 1174.36 383.829C1139.74 379.679 1093 382.162 1037.39 390.796C926.182 408.062 779.722 449.899 624.38 512.226C469.038 574.552 334.277 645.548 241.977 709.933C195.821 742.13 160.323 772.646 138.174 799.571C127.1 813.033 119.393 825.562 115.345 836.924C111.3 848.278 110.927 858.414 114.436 867.159C117.945 875.904 125.22 882.971 135.991 888.381C146.769 893.794 160.999 897.522 178.307 899.596C212.923 903.745 259.669 901.263 315.279 892.629C426.484 875.363 572.944 833.526 728.286 771.199C883.628 708.872 1018.39 637.877 1110.69 573.491C1156.85 541.295 1192.34 510.778 1214.49 483.854C1225.57 470.392 1233.27 457.862 1237.32 446.501C1241.37 435.147 1241.74 425.011 1238.23 416.266Z" stroke="#C7C9DC" stroke-width="1.71934"/>
<path opacity="0.551724" d="M1221.28 367.994C1217.02 359.588 1209.16 353.182 1197.96 348.732C1186.75 344.279 1172.25 341.805 1154.82 341.247C1119.98 340.131 1073.63 346.678 1018.98 360.126C909.704 387.018 767.447 441.461 618.129 517.089C468.81 592.718 340.75 675.189 254.412 747.374C211.238 783.47 178.535 816.964 158.817 845.717C148.958 860.093 142.372 873.247 139.331 884.917C136.291 896.581 136.803 906.711 141.06 915.117C145.318 923.523 153.181 929.929 164.383 934.379C175.591 938.832 190.092 941.306 207.515 941.864C242.361 942.98 288.713 936.433 343.358 922.985C452.636 896.093 594.892 841.65 744.211 766.021C893.529 690.393 1021.59 607.922 1107.93 535.737C1151.1 499.64 1183.8 466.147 1203.52 437.394C1213.38 423.018 1219.97 409.864 1223.01 398.194C1226.05 386.53 1225.54 376.4 1221.28 367.994Z" stroke="#C7C9DC" stroke-width="1.71934"/>
<path opacity="0.586207" d="M1200.22 321.804C1195.25 313.801 1186.86 308.105 1175.31 304.648C1163.75 301.188 1149.09 299.988 1131.69 300.951C1096.88 302.876 1051.27 313.437 998.007 331.597C891.489 367.912 754.519 434.545 612.36 522.9C470.201 611.255 349.816 704.573 270.098 784.008C230.234 823.73 200.574 859.947 183.438 890.308C174.869 905.489 169.455 919.167 167.442 931.058C165.43 942.943 166.823 952.989 171.797 960.992C176.771 968.995 185.162 974.691 196.709 978.149C208.263 981.608 222.924 982.808 240.33 981.845C275.14 979.921 320.745 969.359 374.011 951.199C480.529 914.885 617.499 848.251 759.658 759.896C901.817 671.541 1022.2 578.223 1101.92 498.788C1141.78 459.066 1171.44 422.849 1188.58 392.488C1197.15 377.307 1202.56 363.629 1204.58 351.738C1206.59 339.854 1205.19 329.807 1200.22 321.804Z" stroke="#C7C9DC" stroke-width="1.71934"/>
<path opacity="0.62069" d="M1175.25 278.047C1169.59 270.508 1160.74 265.565 1148.93 263.127C1137.12 260.688 1122.41 260.77 1105.16 263.246C1070.65 268.197 1026.14 282.694 974.656 305.426C871.708 350.886 741.067 429.205 607.15 529.613C473.232 630.022 361.438 733.477 288.947 819.557C252.697 862.603 226.307 901.267 211.882 933.006C204.669 948.876 200.467 962.973 199.498 974.995C198.53 987.01 200.793 996.896 206.445 1004.44C212.098 1011.97 220.954 1016.92 232.758 1019.36C244.57 1021.79 259.28 1021.71 276.535 1019.24C311.045 1014.28 355.556 999.789 407.036 977.056C509.984 931.596 640.625 853.278 774.543 752.869C908.46 652.461 1020.25 549.006 1092.75 462.925C1129 419.879 1155.39 381.215 1169.81 349.476C1177.02 333.606 1181.23 319.509 1182.19 307.487C1183.16 295.473 1180.9 285.586 1175.25 278.047Z" stroke="#C7C9DC" stroke-width="1.71934"/>
<path opacity="0.655172" d="M1146.59 237.053C1140.3 230.035 1131.05 225.883 1119.08 224.483C1107.1 223.083 1092.45 224.447 1075.48 228.417C1041.53 236.358 998.45 254.678 949.147 281.811C850.554 336.071 727.235 425.477 602.579 537.175C477.922 648.873 375.57 761.678 310.857 853.749C278.497 899.79 255.577 940.607 243.973 973.483C238.171 989.921 235.213 1004.33 235.296 1016.39C235.378 1028.44 238.495 1038.1 244.783 1045.11C251.071 1052.13 260.324 1056.28 272.296 1057.68C284.275 1059.08 298.922 1057.72 315.896 1053.75C349.843 1045.81 392.921 1027.49 442.224 1000.36C540.818 946.097 664.136 856.69 788.793 744.992C913.449 633.294 1015.8 520.489 1080.51 428.418C1112.87 382.377 1135.79 341.56 1147.4 308.684C1153.2 292.246 1156.16 277.836 1156.08 265.776C1155.99 253.723 1152.88 244.071 1146.59 237.053Z" stroke="#C7C9DC" stroke-width="1.71934"/>
<path opacity="0.689655" d="M1114.5 199.135C1107.62 192.692 1098.04 189.361 1085.99 189.01C1073.94 188.659 1059.47 191.295 1042.9 196.729C1009.78 207.598 968.458 229.604 921.708 260.93C828.218 323.576 713.161 423.39 598.714 545.528C484.267 667.665 392.136 788.962 335.694 886.323C307.47 935.009 288.194 977.668 279.5 1011.43C275.152 1028.31 273.462 1042.92 274.595 1054.93C275.728 1066.93 279.674 1076.28 286.549 1082.72C293.425 1089.16 303.005 1092.49 315.054 1092.84C327.109 1093.19 341.581 1090.56 358.145 1085.12C391.271 1074.25 432.588 1052.25 479.339 1020.92C572.828 958.276 687.885 858.462 802.332 736.325C916.779 614.187 1008.91 492.891 1065.35 395.53C1093.58 346.844 1112.85 304.185 1121.55 270.423C1125.89 253.541 1127.58 238.928 1126.45 226.921C1125.32 214.921 1121.37 205.578 1114.5 199.135Z" stroke="#C7C9DC" stroke-width="1.71934"/>
<path opacity="0.724138" d="M1079.25 164.578C1071.84 158.759 1062.01 156.276 1049.98 156.976C1037.94 157.677 1023.75 161.564 1007.72 168.422C975.67 182.136 936.427 207.659 892.585 242.941C804.911 313.497 698.991 422.959 595.625 554.606C492.258 686.254 411.05 815.118 363.308 917.028C339.434 967.989 323.95 1012.17 318.231 1046.56C315.372 1063.75 314.961 1078.46 317.137 1090.32C319.311 1102.18 324.056 1111.14 331.467 1116.96C338.878 1122.78 348.712 1125.26 360.745 1124.56C372.786 1123.86 386.973 1119.97 403 1113.12C435.052 1099.4 474.295 1073.88 518.137 1038.6C605.811 968.04 711.731 858.578 815.097 726.931C918.464 595.283 999.672 466.419 1047.41 364.509C1071.29 313.548 1086.77 269.371 1092.49 234.98C1095.35 217.784 1095.76 203.08 1093.59 191.217C1091.41 179.361 1086.67 170.397 1079.25 164.578Z" stroke="#C7C9DC" stroke-width="1.71934"/>
<path opacity="0.758621" d="M1041.17 133.646C1033.28 128.495 1023.27 126.879 1011.34 128.625C999.405 130.373 985.611 135.482 970.243 143.71C939.507 160.166 902.639 189.011 862.038 227.981C780.847 305.909 684.871 424.186 593.372 564.341C501.872 704.497 432.204 839.949 393.526 945.632C374.184 998.48 362.609 1043.84 359.91 1078.6C358.56 1095.98 359.433 1110.66 362.634 1122.29C365.833 1133.91 371.341 1142.43 379.232 1147.58C387.122 1152.73 397.134 1154.34 409.061 1152.6C420.994 1150.85 434.789 1145.74 450.157 1137.51C480.892 1121.06 517.761 1092.21 558.361 1053.24C639.552 975.314 735.529 857.037 827.028 716.882C918.527 576.726 988.195 441.275 1026.87 335.592C1046.22 282.744 1057.79 237.386 1060.49 202.627C1061.84 185.247 1060.97 170.563 1057.77 158.934C1054.57 147.313 1049.06 138.797 1041.17 133.646Z" stroke="#C7C9DC" stroke-width="1.71934"/>
<path opacity="0.793103" d="M1000.56 106.572C992.252 102.128 982.137 101.391 970.408 104.17C958.673 106.951 945.376 113.243 930.783 122.779C901.599 141.851 867.385 173.8 830.335 216.16C756.245 300.868 670.943 427.06 592.007 574.657C513.071 722.254 455.473 863.262 426.153 971.914C411.491 1026.25 403.914 1072.44 404.254 1107.3C404.424 1124.73 406.573 1139.29 410.776 1150.59C414.975 1161.89 421.205 1169.89 429.514 1174.34C437.823 1178.78 447.938 1179.52 459.667 1176.74C471.403 1173.96 484.7 1167.67 499.292 1158.13C528.476 1139.06 562.69 1107.11 599.74 1064.75C673.83 980.041 759.133 853.849 838.069 706.252C917.004 558.655 974.602 417.647 1003.92 308.995C1018.58 254.663 1026.16 208.468 1025.82 173.606C1025.65 156.175 1023.5 141.623 1019.3 130.318C1015.1 119.02 1008.87 111.016 1000.56 106.572Z" stroke="#C7C9DC" stroke-width="1.71934"/>
<path opacity="0.827586" d="M957.783 83.5611C949.118 79.8584 938.977 80.0055 927.535 83.7964C916.086 87.5898 903.388 95.0162 889.683 105.788C862.272 127.331 830.972 162.141 797.756 207.568C731.33 298.411 657.351 431.557 591.579 585.472C525.808 739.387 480.719 884.879 460.98 995.673C451.109 1051.08 447.586 1097.76 450.963 1132.46C452.652 1149.81 456.062 1164.11 461.233 1175.01C466.402 1185.9 473.305 1193.33 481.97 1197.03C490.635 1200.74 500.776 1200.59 512.218 1196.8C523.667 1193 536.365 1185.58 550.07 1174.81C577.481 1153.26 608.781 1118.45 641.997 1073.03C708.423 982.182 782.402 849.036 848.174 695.121C913.945 541.207 959.034 395.715 978.773 284.921C988.644 229.517 992.167 182.838 988.789 148.139C987.101 130.789 983.691 116.479 978.52 105.583C973.351 94.6943 966.448 87.2638 957.783 83.5611Z" stroke="#C7C9DC" stroke-width="1.71934"/>
<path opacity="0.862069" d="M913.193 64.7882C904.238 61.8548 894.148 62.8852 883.08 67.659C872.006 72.4357 860.003 80.9406 847.289 92.8659C821.86 116.716 793.713 154.121 764.582 202.271C706.327 298.558 644.233 437.645 592.127 596.706C540.02 755.768 507.783 904.636 497.776 1016.73C492.771 1072.78 493.33 1119.59 499.719 1153.86C502.913 1171 507.557 1184.96 513.659 1195.36C519.757 1205.76 527.281 1212.56 536.236 1215.49C545.19 1218.43 555.28 1217.4 566.348 1212.62C577.422 1207.85 589.425 1199.34 602.14 1187.41C627.569 1163.56 655.715 1126.16 684.846 1078.01C743.101 981.723 805.195 842.636 857.302 683.574C909.408 524.513 941.645 375.645 951.653 263.553C956.657 207.5 956.098 160.691 949.709 126.418C946.515 109.281 941.871 95.3227 935.77 84.9193C929.672 74.5223 922.147 67.7216 913.193 64.7882Z" stroke="#C7C9DC" stroke-width="1.71934"/>
<path opacity="0.896552" d="M867.168 50.393C857.992 48.2512 848.03 50.157 837.421 55.8772C826.804 61.601 815.589 71.1196 803.962 84.1077C780.708 110.083 755.929 149.799 731.105 200.304C681.464 301.302 631.729 445.272 593.684 608.27C555.638 771.268 536.499 922.379 536.299 1034.92C536.199 1091.19 540.835 1137.77 550.187 1171.36C554.862 1188.15 560.705 1201.65 567.69 1211.49C574.671 1221.31 582.76 1227.43 591.936 1229.57C601.112 1231.71 611.074 1229.81 621.683 1224.09C632.299 1218.36 643.515 1208.85 655.142 1195.86C678.396 1169.88 703.175 1130.17 727.999 1079.66C777.64 978.663 827.375 834.694 865.42 671.696C903.466 508.698 922.605 357.587 922.805 245.049C922.905 188.773 918.269 142.191 908.917 108.605C904.241 91.8119 898.399 78.3117 891.414 68.4797C884.433 58.6537 876.344 52.5348 867.168 50.393Z" stroke="#C7C9DC" stroke-width="1.71934"/>
<path opacity="0.931035" d="M820.097 40.4852C810.769 39.1513 801.011 41.9181 790.941 48.5413C780.864 55.1685 770.521 65.6283 760.07 79.5804C739.169 107.484 717.945 149.208 697.618 201.685C656.968 306.625 619.97 454.382 596.275 620.075C572.581 785.768 566.685 937.972 576.294 1050.1C581.099 1106.17 589.778 1152.17 602.021 1184.81C608.142 1201.14 615.139 1214.08 622.955 1223.26C630.766 1232.44 639.357 1237.83 648.685 1239.17C658.012 1240.5 667.77 1237.73 677.841 1231.11C687.918 1224.48 698.261 1214.02 708.712 1200.07C729.613 1172.17 750.836 1130.44 771.164 1077.97C811.814 973.026 848.812 825.269 872.506 659.576C896.2 493.883 902.097 341.679 892.488 229.551C887.682 173.481 879.004 127.48 866.761 94.8373C860.639 78.5154 853.642 65.5758 845.827 56.39C838.016 47.2098 829.425 41.8191 820.097 40.4852Z" stroke="#C7C9DC" stroke-width="1.71934"/>
<path opacity="0.965517" d="M772.372 35.1392C762.963 34.6233 753.484 38.23 744.028 45.7057C734.568 53.1859 725.175 64.5074 715.98 79.3173C697.591 108.936 680.084 152.352 664.408 206.4C633.059 314.484 609.079 464.903 599.916 632.031C590.753 799.159 598.145 951.297 617.49 1062.16C627.164 1117.6 639.819 1162.67 654.86 1194.12C662.381 1209.85 670.479 1222.13 679.065 1230.6C687.647 1239.06 696.675 1243.68 706.084 1244.2C715.492 1244.71 724.972 1241.11 734.427 1233.63C743.887 1226.15 753.28 1214.83 762.475 1200.02C780.864 1170.4 798.371 1126.99 814.047 1072.94C845.396 964.853 869.376 814.434 878.539 647.306C887.702 480.179 880.31 328.04 860.965 217.177C851.291 161.738 838.636 116.669 823.595 85.2174C816.074 69.4911 807.976 57.2106 799.39 48.7409C790.808 40.2764 781.78 35.655 772.372 35.1392Z" stroke="#C7C9DC" stroke-width="1.71934"/>
<path d="M724.396 34.3929C714.978 34.6991 705.85 39.1183 697.082 47.3895C688.309 55.6659 679.939 67.7629 672.07 83.3178C656.332 114.427 642.676 159.203 631.77 214.412C609.96 324.816 599.182 476.753 604.62 644.044C610.058 811.334 630.681 962.25 659.615 1071C674.083 1125.39 690.618 1169.18 708.344 1199.2C717.207 1214.22 726.344 1225.74 735.636 1233.43C744.922 1241.12 754.319 1244.93 763.737 1244.63C773.155 1244.32 782.284 1239.9 791.051 1231.63C799.824 1223.36 808.194 1211.26 816.063 1195.7C831.801 1164.59 845.457 1119.82 856.363 1064.61C878.173 954.205 888.951 802.268 883.513 634.978C878.075 467.687 857.452 316.771 828.518 208.016C814.05 153.632 797.515 109.837 779.789 79.8162C770.927 64.8052 761.789 53.2773 752.497 45.5882C743.211 37.9038 733.814 34.0868 724.396 34.3929Z" stroke="#C7C9DC" stroke-width="1.71934"/>
</g>
</svg>
