<svg width="821" height="1000" viewBox="0 0 928 1612" fill="none" xmlns="http://www.w3.org/2000/svg">
<g opacity="0.09">
<path opacity="0.0344828" d="M680.566 636.29C677.214 627.483 670.066 620.288 659.394 614.686C648.714 609.082 634.553 605.101 617.284 602.718C582.748 597.952 535.965 599.6 480.21 607.241C368.714 622.521 221.531 661.738 65.1023 721.284C-91.3266 780.83 -227.332 849.411 -320.767 912.14C-367.49 943.508 -403.526 973.386 -426.151 999.911C-437.464 1013.17 -445.394 1025.56 -449.643 1036.85C-453.89 1048.13 -454.444 1058.26 -451.091 1067.06C-447.739 1075.87 -440.592 1083.07 -429.919 1088.67C-419.239 1094.27 -405.078 1098.25 -387.809 1100.64C-353.273 1105.4 -306.49 1103.75 -250.735 1096.11C-139.239 1080.83 7.9438 1041.62 164.373 982.07C320.801 922.524 456.807 853.944 550.241 791.215C596.964 759.847 633.001 729.969 655.626 703.444C666.939 690.181 674.869 677.791 679.118 666.504C683.365 655.223 683.919 645.096 680.566 636.29Z" stroke="#C7C9DC" stroke-width="1.71934"/>
<path opacity="0.0689655" d="M661.229 583.223C657.122 574.743 649.375 568.197 638.254 563.548C627.127 558.895 612.672 556.164 595.262 555.295C560.442 553.557 513.981 559.276 459.104 571.747C349.364 596.686 206.159 648.583 55.515 721.536C-95.1289 794.489 -224.64 874.662 -312.251 945.295C-356.063 980.617 -389.358 1013.52 -409.585 1041.92C-419.699 1056.12 -426.519 1069.15 -429.768 1080.76C-433.016 1092.37 -432.685 1102.51 -428.578 1110.99C-424.471 1119.47 -416.723 1126.02 -405.603 1130.67C-394.475 1135.32 -380.021 1138.05 -362.61 1138.92C-327.79 1140.66 -281.329 1134.94 -226.452 1122.47C-116.712 1097.53 26.4927 1045.63 177.137 972.677C327.78 899.724 457.291 819.551 544.903 748.918C588.714 713.597 622.01 680.691 642.237 652.295C652.351 638.097 659.17 625.063 662.42 613.448C665.667 601.841 665.336 591.704 661.229 583.223Z" stroke="#C7C9DC" stroke-width="1.71934"/>
<path opacity="0.103448" d="M637.746 532.163C632.915 524.072 624.627 518.227 613.143 514.564C601.653 510.9 587.015 509.438 569.595 510.09C534.756 511.394 488.97 521.14 435.389 538.347C328.24 572.756 190.103 636.936 46.3911 722.741C-97.3212 808.546 -219.352 899.701 -300.474 977.702C-341.04 1016.71 -371.341 1052.39 -389.016 1082.44C-397.854 1097.47 -403.512 1111.04 -405.737 1122.9C-407.96 1134.74 -406.747 1144.81 -401.916 1152.9C-397.086 1160.99 -388.797 1166.84 -377.314 1170.5C-365.823 1174.17 -351.186 1175.63 -333.766 1174.98C-298.927 1173.67 -253.141 1163.93 -199.56 1146.72C-92.4109 1112.31 45.726 1048.13 189.438 962.326C333.151 876.521 455.181 785.366 536.303 707.365C576.869 668.36 607.17 632.678 624.846 602.627C633.684 587.602 639.341 574.023 641.566 562.169C643.79 550.323 642.576 540.253 637.746 532.163Z" stroke="#C7C9DC" stroke-width="1.71934"/>
<path opacity="0.137931" d="M610.306 483.465C604.789 475.826 596.022 470.726 584.263 468.078C572.497 465.428 557.788 465.248 540.491 467.416C505.898 471.751 461.136 485.451 409.258 507.262C305.516 550.878 173.499 626.854 37.8117 724.858C-97.8753 822.861 -211.497 924.306 -285.512 1009.08C-322.524 1051.47 -349.6 1089.66 -364.589 1121.14C-372.084 1136.87 -376.536 1150.89 -377.72 1162.9C-378.902 1174.89 -376.816 1184.82 -371.299 1192.46C-365.781 1200.1 -357.015 1205.2 -345.256 1207.84C-333.49 1210.49 -318.781 1210.67 -301.484 1208.51C-266.891 1204.17 -222.129 1190.47 -170.251 1168.66C-66.5087 1125.04 65.5088 1049.07 201.196 951.064C336.883 853.06 450.504 751.616 524.52 666.842C561.532 624.45 588.608 586.263 603.597 554.786C611.091 539.047 615.544 525.027 616.727 513.024C617.91 501.029 615.823 491.104 610.306 483.465Z" stroke="#C7C9DC" stroke-width="1.71934"/>
<path opacity="0.172414" d="M579.131 437.466C572.969 430.337 563.791 426.02 551.846 424.407C539.894 422.793 525.225 423.896 508.183 427.563C474.099 434.896 430.701 452.445 380.922 478.695C281.376 531.187 156.483 618.379 29.8535 727.836C-96.7756 837.293 -201.123 948.254 -267.468 1039.16C-300.645 1084.61 -324.29 1125.01 -336.478 1157.68C-342.572 1174.01 -345.786 1188.36 -345.919 1200.42C-346.052 1212.48 -343.108 1222.18 -336.946 1229.31C-330.784 1236.44 -321.606 1240.76 -309.661 1242.37C-297.709 1243.98 -283.04 1242.88 -265.998 1239.22C-231.915 1231.88 -188.517 1214.33 -138.737 1188.08C-39.1915 1135.59 85.702 1048.4 212.331 938.942C338.96 829.485 443.308 718.524 509.653 627.622C542.829 582.165 566.474 541.764 578.663 509.1C584.757 492.768 587.971 478.413 588.104 466.353C588.236 454.3 585.293 444.595 579.131 437.466Z" stroke="#C7C9DC" stroke-width="1.71934"/>
<path opacity="0.206897" d="M544.47 394.479C537.71 387.914 528.191 384.414 516.151 383.848C504.103 383.282 489.586 385.659 472.928 390.797C439.614 401.073 397.911 422.338 350.609 452.826C256.016 513.795 139.197 611.54 22.5899 731.617C-94.0175 851.694 -188.297 971.327 -246.467 1067.67C-275.556 1115.84 -295.589 1158.15 -304.884 1191.75C-309.532 1208.55 -311.483 1223.13 -310.564 1235.16C-309.645 1247.18 -305.867 1256.59 -299.107 1263.15C-292.347 1269.72 -282.828 1273.22 -270.788 1273.78C-258.741 1274.35 -244.224 1271.97 -227.566 1266.84C-194.252 1256.56 -152.548 1235.29 -105.246 1204.81C-10.6541 1143.84 106.165 1046.09 222.772 926.016C339.38 805.939 433.659 686.305 491.829 589.967C520.918 541.792 540.951 499.483 550.247 465.881C554.894 449.08 556.845 434.5 555.926 422.474C555.008 410.456 551.229 401.043 544.47 394.479Z" stroke="#C7C9DC" stroke-width="1.71934"/>
<path opacity="0.241379" d="M506.599 354.796C499.293 348.846 489.505 346.188 477.461 346.674C465.41 347.16 451.156 350.793 435.009 357.364C402.717 370.504 363.026 395.323 318.561 429.818C229.642 498.798 121.787 606.353 16.0887 736.136C-89.6097 865.919 -173.104 993.314 -222.656 1094.36C-247.435 1144.88 -263.705 1188.78 -270.036 1223.06C-273.202 1240.2 -273.874 1254.9 -271.911 1266.8C-269.948 1278.69 -265.364 1287.74 -258.058 1293.69C-250.752 1299.64 -240.964 1302.3 -228.92 1301.81C-216.869 1301.32 -202.615 1297.69 -186.468 1291.12C-154.176 1277.98 -114.485 1253.16 -70.0199 1218.67C18.8986 1149.69 126.754 1042.13 232.452 912.348C338.151 782.565 421.645 655.17 471.197 554.128C495.976 503.601 512.246 459.707 518.577 425.424C521.743 408.281 522.415 393.586 520.452 381.687C518.489 369.794 513.905 360.747 506.599 354.796Z" stroke="#C7C9DC" stroke-width="1.71934"/>
<path opacity="0.275862" d="M465.817 318.691C458.02 313.4 448.037 311.605 436.082 313.139C424.119 314.674 410.236 319.535 394.723 327.488C363.699 343.393 326.322 371.577 285.033 409.815C202.465 486.283 104.394 602.829 10.4091 741.33C-83.5758 879.832 -155.649 1014.02 -196.206 1119C-216.487 1171.49 -228.87 1216.63 -232.189 1251.34C-233.848 1268.69 -233.238 1283.39 -230.244 1295.07C-227.253 1306.75 -221.898 1315.36 -214.101 1320.65C-206.303 1325.94 -196.321 1327.74 -184.366 1326.21C-172.403 1324.67 -158.519 1319.81 -143.007 1311.86C-111.983 1295.95 -74.6058 1267.77 -33.3166 1229.53C49.2515 1153.06 147.322 1036.52 241.307 898.014C335.292 759.513 407.365 625.326 447.922 520.35C468.203 467.855 480.586 422.711 483.905 388.005C485.565 370.652 484.954 355.955 481.96 344.272C478.969 332.595 473.614 323.982 465.817 318.691Z" stroke="#C7C9DC" stroke-width="1.71934"/>
<path opacity="0.310345" d="M422.448 286.396C414.22 281.804 404.119 280.887 392.343 283.456C380.559 286.028 367.152 292.081 352.392 301.355C322.872 319.904 288.094 351.238 250.294 392.929C174.705 476.303 87.1651 600.953 5.60911 747.118C-75.9469 893.284 -136.051 1033.24 -167.304 1141.35C-182.933 1195.42 -191.333 1241.47 -191.615 1276.33C-191.756 1293.76 -189.867 1308.35 -185.867 1319.73C-181.869 1331.1 -175.783 1339.21 -167.555 1343.8C-159.326 1348.4 -149.226 1349.31 -137.449 1346.74C-125.666 1344.17 -112.259 1338.12 -97.4985 1328.84C-67.9787 1310.3 -33.2002 1278.96 4.5992 1237.27C80.1885 1153.9 167.728 1029.25 249.284 883.082C330.84 736.916 390.944 596.958 422.198 488.847C437.827 434.784 446.227 388.732 446.509 353.87C446.65 336.438 444.76 321.85 440.76 310.472C436.762 299.101 430.677 290.987 422.448 286.396Z" stroke="#C7C9DC" stroke-width="1.71934"/>
<path opacity="0.344828" d="M376.835 258.124C368.237 254.267 358.095 254.233 346.588 257.82C335.073 261.408 322.245 268.607 308.349 279.133C280.558 300.183 248.643 334.429 214.621 379.257C146.586 468.901 70.2428 600.706 1.73626 753.423C-66.7703 906.14 -114.447 1050.8 -136.159 1161.23C-147.017 1216.45 -151.371 1263.06 -148.614 1297.81C-147.235 1315.19 -144.081 1329.56 -139.105 1340.54C-134.131 1351.52 -127.361 1359.07 -118.764 1362.93C-110.167 1366.79 -100.024 1366.82 -88.5169 1363.24C-77.0024 1359.65 -64.1739 1352.45 -50.2782 1341.92C-22.4874 1320.87 9.42794 1286.63 43.4498 1241.8C111.485 1152.15 187.828 1020.35 256.334 867.632C324.841 714.915 372.518 570.25 394.23 459.826C405.087 404.608 409.442 357.999 406.684 323.244C405.306 305.867 402.152 291.499 397.175 280.512C392.202 269.533 385.432 261.981 376.835 258.124Z" stroke="#C7C9DC" stroke-width="1.71934"/>
<path opacity="0.37931" d="M329.336 234.055C320.435 230.962 310.328 231.812 299.177 236.388C288.019 240.966 275.867 249.256 262.942 260.952C237.091 284.345 208.282 321.242 178.297 368.864C118.333 464.097 53.7686 602.054 -1.167 760.161C-56.1026 918.268 -90.9898 1066.54 -102.995 1178.43C-108.999 1234.39 -109.275 1281.2 -103.498 1315.58C-100.61 1332.77 -96.2162 1346.81 -90.3011 1357.32C-84.3895 1367.83 -76.9874 1374.76 -68.0867 1377.85C-59.1859 1380.94 -49.0793 1380.09 -37.928 1375.52C-26.7701 1370.94 -14.6179 1362.65 -1.6924 1350.95C24.158 1327.56 52.9671 1290.66 82.9525 1243.04C142.916 1147.81 207.481 1009.85 262.416 851.746C317.352 693.639 352.239 545.37 364.244 433.474C370.248 377.519 370.524 330.708 364.748 296.326C361.86 279.135 357.465 265.096 351.55 254.585C345.639 244.081 338.237 237.147 329.336 234.055Z" stroke="#C7C9DC" stroke-width="1.71934"/>
<path opacity="0.413793" d="M280.325 214.338C271.188 212.033 261.194 213.761 250.484 219.291C239.768 224.824 228.384 234.141 216.527 246.92C192.814 272.477 167.33 311.744 141.61 361.799C90.1746 461.895 37.8793 604.955 -3.06739 767.248C-44.0141 929.541 -65.8459 1080.29 -68.0533 1192.8C-69.1571 1249.07 -65.3522 1295.73 -56.6014 1329.47C-52.2259 1346.35 -46.625 1359.95 -39.8163 1369.9C-33.0117 1379.85 -25.0336 1386.12 -15.8971 1388.42C-6.76062 1390.73 3.23342 1389 13.9434 1383.47C24.6598 1377.93 36.0433 1368.62 47.9002 1355.84C71.6134 1330.28 97.0971 1291.01 122.818 1240.96C174.253 1140.86 226.548 997.804 267.495 835.511C308.442 673.218 330.273 522.472 332.481 409.956C333.585 353.69 329.78 307.033 321.029 273.286C316.653 256.412 311.053 242.809 304.244 232.854C297.439 222.905 289.461 216.643 280.325 214.338Z" stroke="#C7C9DC" stroke-width="1.71934"/>
<path opacity="0.448276" d="M230.186 199.091C220.883 197.591 211.078 200.183 200.891 206.625C190.697 213.072 180.169 223.345 169.471 237.109C148.075 264.635 126.111 305.974 104.851 358.08C62.3354 462.278 22.7075 609.351 -3.93858 774.596C-30.5846 939.84 -39.1951 1091.91 -31.5876 1204.2C-27.7833 1260.34 -19.9265 1306.49 -8.26776 1339.35C-2.43825 1355.78 4.32691 1368.84 11.9773 1378.16C19.6231 1387.48 28.1167 1393.02 37.4193 1394.52C46.7219 1396.02 56.5273 1393.43 66.7146 1386.99C76.908 1380.54 87.4361 1370.27 98.1342 1356.5C119.53 1328.98 141.494 1287.64 162.754 1235.53C205.27 1131.34 244.898 984.262 271.544 819.018C298.19 653.773 306.8 501.699 299.193 389.418C295.388 333.271 287.532 287.123 275.873 254.266C270.043 237.838 263.278 224.776 255.628 215.452C247.982 206.134 239.488 200.591 230.186 199.091Z" stroke="#C7C9DC" stroke-width="1.71934"/>
<path opacity="0.482759" d="M179.313 188.394C169.915 187.711 160.373 191.148 150.786 198.454C141.193 205.764 131.6 216.916 122.142 231.559C103.227 260.846 84.9496 303.942 68.3115 357.702C35.0394 465.209 8.38058 615.177 -3.7621 782.115C-15.9048 949.053 -11.2283 1101.3 6.13621 1212.49C14.8196 1268.09 26.6686 1313.38 41.1465 1345.09C48.3857 1360.95 56.2636 1373.38 64.6975 1382C73.1263 1390.61 82.0707 1395.39 91.4686 1396.08C100.867 1396.76 110.409 1393.32 119.996 1386.02C129.589 1378.71 139.181 1367.56 148.639 1352.91C167.554 1323.63 185.832 1280.53 202.47 1226.77C235.742 1119.26 262.401 969.296 274.544 802.358C286.686 635.42 282.01 483.173 264.645 371.983C255.962 316.381 244.113 271.093 229.635 239.378C222.396 223.52 214.518 211.097 206.084 202.476C197.655 193.86 188.711 189.078 179.313 188.394Z" stroke="#C7C9DC" stroke-width="1.71934"/>
<path opacity="0.517241" d="M128.106 182.291C118.685 182.429 109.478 186.684 100.565 194.798C91.6454 202.916 83.0612 214.862 74.9157 230.274C58.6251 261.098 44.1729 305.623 32.2836 360.629C8.50802 470.627 -4.97884 622.347 -2.52572 789.708C-0.0725968 957.069 17.8553 1108.33 44.8445 1217.58C58.3409 1272.22 74.0919 1316.3 91.2789 1346.63C99.8727 1361.8 108.803 1373.49 117.956 1381.34C127.104 1389.19 136.431 1393.17 145.853 1393.04C155.275 1392.9 164.481 1388.64 173.395 1380.53C182.314 1372.41 190.898 1360.46 199.044 1345.05C215.334 1314.23 229.787 1269.7 241.676 1214.7C265.451 1104.7 278.938 952.979 276.485 785.618C274.032 618.257 256.104 466.997 229.115 357.744C215.619 303.11 199.868 259.027 182.681 228.695C174.087 213.528 165.156 201.839 156.003 193.985C146.855 186.136 137.528 182.153 128.106 182.291Z" stroke="#C7C9DC" stroke-width="1.71934"/>
<path opacity="0.551724" d="M76.9671 180.796C67.5932 181.755 58.7928 186.797 50.6201 195.656C42.4426 204.521 34.9322 217.17 28.1609 233.233C14.6187 265.359 4.10212 310.974 -2.94785 366.807C-17.046 478.459 -17.2583 630.777 -0.22801 797.287C16.8023 963.798 47.845 1112.92 84.2537 1219.4C102.46 1272.65 121.993 1315.2 141.759 1343.92C151.642 1358.28 161.557 1369.14 171.36 1376.17C181.157 1383.19 190.796 1386.35 200.17 1385.39C209.544 1384.43 218.344 1379.39 226.517 1370.53C234.694 1361.66 242.205 1349.01 248.976 1332.95C262.518 1300.82 273.035 1255.21 280.085 1199.38C294.183 1087.72 294.395 935.406 277.365 768.896C260.334 602.385 229.292 453.264 192.883 346.778C174.676 293.529 155.143 250.987 135.378 222.267C125.495 207.907 115.58 197.041 105.777 190.015C95.9798 182.993 86.341 179.838 76.9671 180.796Z" stroke="#C7C9DC" stroke-width="1.71934"/>
<path opacity="0.586207" d="M26.297 183.884C17.0424 185.656 8.71493 191.446 1.34549 200.984C-6.02834 210.528 -12.4077 223.783 -17.7532 240.375C-28.4439 273.559 -34.9449 319.917 -37.1019 376.152C-41.4153 488.607 -28.3514 640.365 3.12641 804.757C34.6042 969.149 78.5256 1115 124.077 1217.91C146.855 1269.37 170.022 1310.04 192.215 1336.93C203.312 1350.37 214.136 1360.33 224.514 1366.48C234.886 1372.62 244.763 1374.92 254.018 1373.15C263.272 1371.38 271.6 1365.59 278.969 1356.05C286.343 1346.51 292.723 1333.25 298.068 1316.66C308.759 1283.48 315.26 1237.12 317.417 1180.88C321.73 1068.43 308.666 916.672 277.188 752.28C245.711 587.887 201.789 442.039 156.238 339.131C133.46 287.671 110.293 246.994 88.1001 220.106C77.0033 206.662 66.1785 196.702 55.8006 190.557C45.4289 184.416 35.5517 182.112 26.297 183.884Z" stroke="#C7C9DC" stroke-width="1.71934"/>
<path opacity="0.62069" d="M-23.5069 191.499C-32.5719 194.07 -40.363 200.564 -46.8731 210.708C-53.3871 220.858 -58.587 234.619 -62.466 251.614C-70.2239 285.603 -72.6597 332.352 -69.9073 388.561C-64.4032 500.964 -38.1624 651.005 7.5233 812.028C53.209 973.052 109.675 1114.52 164.022 1213.06C191.198 1262.34 217.822 1300.85 242.274 1325.7C254.5 1338.12 266.152 1347.1 277.026 1352.32C287.893 1357.53 297.934 1358.97 306.999 1356.39C316.064 1353.82 323.855 1347.33 330.365 1337.19C336.879 1327.03 342.079 1313.27 345.958 1296.28C353.716 1262.29 356.152 1215.54 353.399 1159.33C347.895 1046.93 321.654 896.888 275.969 735.865C230.283 574.841 173.817 433.376 119.47 334.83C92.2937 285.551 65.67 247.047 41.218 222.197C28.9916 209.771 17.34 200.792 6.46596 195.575C-4.4015 190.361 -14.4419 188.927 -23.5069 191.499Z" stroke="#C7C9DC" stroke-width="1.71934"/>
<path opacity="0.655172" d="M-72.0525 203.544C-80.8588 206.896 -88.0544 214.044 -93.6556 224.717C-99.2601 235.396 -103.241 249.558 -105.624 266.826C-110.39 301.362 -108.742 348.145 -101.101 403.9C-85.8214 515.396 -46.6036 662.579 12.9424 819.008C72.4884 975.437 141.069 1111.44 203.798 1204.88C235.166 1251.6 265.044 1287.64 291.569 1310.26C304.832 1321.57 317.222 1329.5 328.509 1333.75C339.789 1338 349.917 1338.55 358.723 1335.2C367.529 1331.85 374.725 1324.7 380.326 1314.03C385.931 1303.35 389.911 1289.19 392.294 1271.92C397.06 1237.38 395.413 1190.6 387.772 1134.85C372.492 1023.35 333.274 876.167 273.728 719.738C214.182 563.309 145.602 427.303 82.8729 333.869C51.5047 287.146 21.6265 251.109 -4.8984 228.484C-18.1612 217.171 -30.5511 209.242 -41.8384 204.992C-53.119 200.745 -63.2462 200.192 -72.0525 203.544Z" stroke="#C7C9DC" stroke-width="1.71934"/>
<path opacity="0.689655" d="M-118.959 219.897C-127.44 224.004 -133.985 231.752 -138.635 242.872C-143.287 254 -146.019 268.454 -146.888 285.864C-148.626 320.685 -142.907 367.146 -130.435 422.023C-105.496 531.763 -53.5999 674.968 19.3532 825.612C92.3063 976.255 172.479 1105.77 243.113 1193.38C278.434 1237.19 311.339 1270.48 339.735 1290.71C353.933 1300.83 366.967 1307.65 378.582 1310.89C390.19 1314.14 400.327 1313.81 408.807 1309.7C417.288 1305.6 423.833 1297.85 428.483 1286.73C433.135 1275.6 435.867 1261.15 436.736 1243.74C438.473 1208.92 432.754 1162.46 420.283 1107.58C395.344 997.839 343.448 854.634 270.495 703.99C197.542 553.346 117.368 423.835 46.735 336.224C11.4139 292.412 -21.4914 259.117 -49.8872 238.89C-64.0855 228.776 -77.1194 221.956 -88.7342 218.707C-100.342 215.459 -110.479 215.79 -118.959 219.897Z" stroke="#C7C9DC" stroke-width="1.71934"/>
<path opacity="0.724138" d="M-163.858 240.397C-171.949 245.228 -177.794 253.516 -181.457 265C-185.122 276.49 -186.583 291.128 -185.931 308.548C-184.628 343.387 -174.881 389.173 -157.674 442.754C-123.266 549.903 -59.0856 688.039 26.7193 831.752C112.524 975.464 203.68 1097.49 281.68 1178.62C320.685 1219.18 356.367 1249.48 386.418 1267.16C401.444 1276 415.023 1281.65 426.876 1283.88C438.723 1286.1 448.792 1284.89 456.883 1280.06C464.973 1275.23 470.818 1266.94 474.481 1255.46C478.146 1243.97 479.607 1229.33 478.955 1211.91C477.652 1177.07 467.905 1131.28 450.699 1077.7C416.29 970.554 352.11 832.417 266.305 688.705C180.5 544.992 89.3443 422.962 11.344 341.84C-27.6611 301.274 -63.3431 270.972 -93.3938 253.297C-108.42 244.459 -121.998 238.802 -133.852 236.577C-145.699 234.353 -155.768 235.567 -163.858 240.397Z" stroke="#C7C9DC" stroke-width="1.71934"/>
<path opacity="0.758621" d="M-206.394 264.853C-214.033 270.37 -219.134 279.137 -221.782 290.896C-224.431 302.662 -224.611 317.371 -222.443 334.668C-218.108 369.261 -204.408 414.023 -182.597 465.901C-138.981 569.643 -63.0056 701.66 34.9981 837.347C133.002 973.034 234.446 1086.66 319.22 1160.67C361.613 1197.68 399.8 1224.76 431.276 1239.75C447.015 1247.24 461.035 1251.7 473.038 1252.88C485.033 1254.06 494.959 1251.97 502.597 1246.46C510.236 1240.94 515.336 1232.17 517.984 1220.41C520.634 1208.65 520.814 1193.94 518.646 1176.64C514.311 1142.05 500.611 1097.29 478.8 1045.41C435.184 941.668 359.209 809.65 261.205 673.963C163.201 538.276 61.7564 424.655 -23.0174 350.639C-65.4096 313.627 -103.597 286.551 -135.074 271.562C-150.812 264.068 -164.833 259.615 -176.835 258.432C-188.83 257.249 -198.756 259.336 -206.394 264.853Z" stroke="#C7C9DC" stroke-width="1.71934"/>
<path opacity="0.793103" d="M-246.233 293.044C-253.362 299.206 -257.679 308.384 -259.292 320.329C-260.906 332.281 -259.803 346.95 -256.136 363.992C-248.802 398.076 -231.253 441.474 -205.004 491.253C-152.512 590.799 -65.3195 715.692 44.1373 842.322C153.594 968.951 264.555 1073.3 355.457 1139.64C400.914 1172.82 441.316 1196.46 473.979 1208.65C490.311 1214.75 504.666 1217.96 516.726 1218.09C528.779 1218.23 538.485 1215.28 545.613 1209.12C552.742 1202.96 557.059 1193.78 558.672 1181.84C560.286 1169.88 559.183 1155.22 555.516 1138.17C548.183 1104.09 530.634 1060.69 504.384 1010.91C451.892 911.367 364.7 786.473 255.243 659.844C145.787 533.215 34.8252 428.867 -56.0769 362.522C-101.534 329.346 -141.935 305.701 -174.599 293.512C-190.931 287.418 -205.286 284.204 -217.346 284.071C-229.398 283.939 -239.104 286.882 -246.233 293.044Z" stroke="#C7C9DC" stroke-width="1.71934"/>
<path opacity="0.827586" d="M-283.059 324.721C-289.623 331.481 -293.124 341 -293.69 353.04C-294.256 365.088 -291.879 379.605 -286.741 396.262C-276.464 429.577 -255.2 471.28 -224.711 518.582C-163.743 613.175 -65.9974 729.994 54.0793 846.601C174.156 963.208 293.79 1057.49 390.128 1115.66C438.303 1144.75 480.612 1164.78 514.213 1174.08C531.015 1178.72 545.595 1180.67 557.621 1179.75C569.639 1178.84 579.051 1175.06 585.616 1168.3C592.18 1161.54 595.681 1152.02 596.247 1139.98C596.813 1127.93 594.436 1113.41 589.298 1096.76C579.022 1063.44 557.757 1021.74 527.269 974.437C466.3 879.845 368.555 763.026 248.478 646.419C128.401 529.811 8.76767 435.531 -87.5708 377.362C-135.746 348.273 -178.055 328.24 -211.656 318.944C-228.457 314.297 -243.038 312.346 -255.063 313.265C-267.082 314.183 -276.494 317.962 -283.059 324.721Z" stroke="#C7C9DC" stroke-width="1.71934"/>
<path opacity="0.862069" d="M-316.578 359.61C-322.528 366.916 -325.186 376.704 -324.7 388.747C-324.214 400.798 -320.581 415.053 -314.011 431.199C-300.87 463.492 -276.051 503.183 -241.557 547.648C-172.576 636.566 -65.0209 744.421 64.7619 850.12C194.545 955.818 321.94 1039.31 422.982 1088.86C473.509 1113.64 517.403 1129.91 551.686 1136.24C568.829 1139.41 583.523 1140.08 595.423 1138.12C607.316 1136.16 616.363 1131.57 622.314 1124.27C628.264 1116.96 630.922 1107.17 630.436 1095.13C629.95 1083.08 626.317 1068.82 619.746 1052.68C606.606 1020.38 581.787 980.693 547.292 936.228C478.312 847.31 370.757 739.455 240.974 633.756C111.191 528.058 -16.2043 444.564 -117.246 395.012C-167.773 370.233 -211.667 353.963 -245.951 347.631C-263.093 344.466 -277.788 343.793 -289.688 345.757C-301.58 347.719 -310.627 352.303 -316.578 359.61Z" stroke="#C7C9DC" stroke-width="1.71934"/>
<path opacity="0.896552" d="M-346.525 397.407C-351.816 405.204 -353.61 415.186 -352.077 427.142C-350.542 439.104 -345.681 452.988 -337.728 468.5C-321.823 499.524 -293.639 536.902 -255.401 578.191C-178.933 660.759 -62.3865 758.83 76.1146 852.815C214.616 946.799 348.803 1018.87 453.779 1059.43C506.274 1079.71 551.418 1092.09 586.124 1095.41C603.477 1097.07 618.174 1096.46 629.857 1093.47C641.534 1090.48 650.147 1085.12 655.438 1077.32C660.729 1069.53 662.524 1059.54 660.99 1047.59C659.456 1035.63 654.594 1021.74 646.641 1006.23C630.736 975.207 602.553 937.829 564.314 896.54C487.846 813.972 371.3 715.901 232.799 621.916C94.2975 527.932 -39.8901 455.858 -144.866 415.301C-197.361 395.02 -242.505 382.638 -277.21 379.319C-294.563 377.659 -309.261 378.27 -320.944 381.263C-332.621 384.255 -341.234 389.61 -346.525 397.407Z" stroke="#C7C9DC" stroke-width="1.71934"/>
<path opacity="0.931035" d="M-372.659 437.791C-377.25 446.019 -378.168 456.12 -375.598 467.896C-373.027 479.68 -366.974 493.087 -357.699 507.847C-339.151 537.367 -307.817 572.146 -266.125 609.945C-182.752 685.534 -58.1017 773.074 88.0637 854.63C234.229 936.186 374.188 996.29 482.299 1027.54C536.361 1043.17 582.413 1051.57 617.276 1051.85C634.707 1052 649.296 1050.11 660.674 1046.11C672.045 1042.11 680.159 1036.02 684.75 1027.79C689.341 1019.57 690.259 1009.46 687.689 997.688C685.118 985.905 679.065 972.498 669.79 957.738C651.242 928.218 619.908 893.439 578.216 855.64C494.843 780.051 370.193 692.511 224.027 610.955C77.862 529.399 -62.0966 469.295 -170.208 438.041C-224.27 422.413 -270.322 414.012 -305.185 413.73C-322.616 413.589 -337.205 415.479 -348.583 419.479C-359.954 423.477 -368.068 429.562 -372.659 437.791Z" stroke="#C7C9DC" stroke-width="1.71934"/>
<path opacity="0.965517" d="M-394.77 480.422C-398.627 489.02 -398.66 499.162 -395.074 510.669C-391.486 522.184 -384.287 535.012 -373.761 548.908C-352.711 576.699 -318.465 608.614 -273.637 642.636C-183.993 710.671 -52.1878 787.014 100.529 855.521C253.247 924.027 397.911 971.704 508.335 993.416C563.554 1004.27 610.163 1008.63 644.917 1005.87C662.294 1004.49 676.663 1001.34 687.649 996.361C698.628 991.388 706.181 984.618 710.037 976.021C713.894 967.424 713.928 957.281 710.342 945.774C706.753 934.259 699.554 921.431 689.029 907.535C667.978 879.744 633.732 847.829 588.905 813.807C499.261 745.772 367.455 669.429 214.738 600.922C62.0208 532.416 -82.6436 484.739 -193.067 463.027C-248.286 452.17 -294.895 447.815 -329.649 450.572C-347.027 451.951 -361.395 455.105 -372.381 460.082C-383.361 465.055 -390.913 471.825 -394.77 480.422Z" stroke="#C7C9DC" stroke-width="1.71934"/>
<path d="M-412.676 524.937C-415.769 533.837 -414.919 543.944 -410.343 555.095C-405.765 566.253 -397.475 578.405 -385.779 591.331C-362.386 617.181 -325.489 645.99 -277.867 675.976C-182.634 735.939 -44.6767 800.504 113.43 855.439C271.537 910.375 419.806 945.262 531.702 957.268C587.657 963.271 634.468 963.547 668.85 957.771C686.041 954.883 700.08 950.489 710.59 944.574C721.095 938.662 728.028 931.26 731.121 922.359C734.214 913.458 733.363 903.352 728.788 892.201C724.209 881.043 715.92 868.89 704.223 855.965C680.831 830.115 643.934 801.305 596.311 771.32C501.079 711.357 363.121 646.792 205.014 591.856C46.9076 536.921 -101.362 502.033 -213.258 490.028C-269.212 484.025 -316.024 483.749 -350.405 489.525C-367.597 492.413 -381.635 496.807 -392.146 502.722C-402.65 508.634 -409.584 516.036 -412.676 524.937Z" stroke="#C7C9DC" stroke-width="1.71934"/>
</g>
</svg>
