<svg width="54" height="51" viewBox="0 0 54 51" fill="none" xmlns="http://www.w3.org/2000/svg">
<path d="M40.4718 -0.00012207C34.0724 11.8615 30.5367 17.7766 26.9718 17.7766C23.4068 17.7766 19.8711 11.8615 13.501 -0.00012207C19.8711 11.8615 22.9101 18.1209 21.1276 21.407C19.3451 24.6932 12.7705 25.0375 0.000976562 25.0375C13.238 25.0375 19.8127 25.3818 21.3029 29.0122C22.7055 32.3923 19.6666 38.6204 13.501 50.0751C19.9003 38.2136 23.436 32.2984 27.001 32.2984C30.5659 32.2984 34.1016 38.2136 40.501 50.0751C33.7218 37.4624 30.7412 31.203 33.2542 28.0733C35.475 25.3192 42.0205 25.0375 54.001 25.0375C40.501 25.0375 33.9263 24.6619 32.6114 20.8124C31.4133 17.3697 34.4523 11.1729 40.4718 -0.00012207Z" fill="white"/>
</svg>
