<svg width="264" height="16" viewBox="0 0 264 16" fill="none" xmlns="http://www.w3.org/2000/svg">
<path d="M5.24811 0.473633H20.0544C20.7047 0.473633 21.255 1.02403 21.255 1.69949C21.255 2.34994 20.7047 2.90032 20.0544 2.90032H5.24811C4.14771 2.90032 3.2722 3.77591 3.2722 4.90164C3.2722 6.02751 4.14771 6.90309 5.24811 6.90309H18.1286C20.5548 6.90309 22.5308 8.90454 22.5308 11.3312C22.5308 13.7579 20.5548 15.7592 18.1286 15.7592H2.04672C1.37154 15.7592 0.846191 15.2089 0.846191 14.5584C0.846191 13.8831 1.37154 13.3325 2.04672 13.3325H18.1286C19.2292 13.3325 20.1045 12.457 20.1045 11.3312C20.1045 10.2054 19.2292 9.32978 18.1286 9.32978H5.24811C2.8221 9.32978 0.846191 7.32846 0.846191 4.90164C0.846191 2.47502 2.8221 0.473633 5.24811 0.473633ZM28.9927 0.473633H45.0745C47.501 0.473633 49.477 2.47502 49.477 4.90164C49.477 7.32846 47.501 9.32978 45.0745 9.32978H30.2183V14.5584C30.2183 15.2089 29.668 15.7592 28.9927 15.7592C28.3174 15.7592 27.7925 15.2089 27.7925 14.5584V8.12899C27.7925 7.45347 28.3174 6.90309 28.9927 6.90309H45.0745C46.1756 6.90309 47.0505 6.02751 47.0505 4.90164C47.0505 3.77591 46.1756 2.90032 45.0745 2.90032H28.9927C28.3174 2.90032 27.7925 2.34994 27.7925 1.69949C27.7925 1.02403 28.3174 0.473633 28.9927 0.473633ZM65.4289 0.473633C65.7037 0.498661 66.1042 0.673778 66.3045 0.898938L77.2346 13.7579C77.3836 13.958 77.5101 14.3082 77.5101 14.5584C77.5101 14.8586 77.3344 15.2589 77.0843 15.484C76.9086 15.6342 76.5586 15.7592 76.3085 15.7592C75.9838 15.7592 75.5826 15.5591 75.3837 15.334L65.379 3.5508L55.3744 15.334C55.1741 15.5591 54.7497 15.7592 54.4489 15.7592C54.1994 15.7592 53.8488 15.6342 53.6738 15.484C53.4236 15.2589 53.2487 14.8586 53.2487 14.5584C53.2487 14.3082 53.3738 13.958 53.5241 13.7579L64.4536 0.898938C64.6538 0.673778 65.079 0.473633 65.379 0.473633C65.379 0.473633 65.4036 0.473633 65.4289 0.473633ZM88.8975 0.473633H101.754C102.428 0.473633 102.954 1.02403 102.954 1.69949C102.954 2.34994 102.428 2.90032 101.754 2.90032H88.8975C85.9966 2.90032 83.6952 5.22691 83.6952 8.12899C83.6952 11.006 85.9966 13.3325 88.8975 13.3325H101.754C102.428 13.3325 102.954 13.8831 102.954 14.5584C102.954 15.2089 102.428 15.7592 101.754 15.7592H88.8975C84.6959 15.7592 81.2687 12.332 81.2687 8.12899C81.2687 3.90105 84.6959 0.473633 88.8975 0.473633ZM109.416 0.473633H127.423C128.075 0.473633 128.625 1.02403 128.625 1.69949C128.625 2.34994 128.075 2.90032 127.423 2.90032H110.642V13.3325H127.423C128.075 13.3325 128.625 13.8831 128.625 14.5584C128.625 15.2089 128.075 15.7592 127.423 15.7592H109.416C108.741 15.7592 108.216 15.2089 108.216 14.5584V1.69949C108.216 1.02403 108.741 0.473633 109.416 0.473633ZM114.493 6.90309H126.124C126.798 6.90309 127.349 7.45347 127.349 8.10395V8.12899C127.349 8.7794 126.798 9.32978 126.124 9.32978H114.493C113.817 9.32978 113.294 8.7794 113.294 8.12899V8.10395C113.294 7.45347 113.817 6.90309 114.493 6.90309ZM146.048 15.7592C146.022 15.7592 145.997 15.7592 145.997 15.7592C145.697 15.7592 145.273 15.5591 145.072 15.334L134.143 2.47502C133.992 2.29993 133.867 1.94968 133.867 1.69949C133.867 1.37426 134.042 0.973982 134.292 0.773851C134.468 0.59872 134.817 0.473633 135.068 0.473633C135.368 0.473633 135.794 0.673778 135.994 0.898938L145.997 12.6821L156.002 0.898938C156.202 0.673778 156.602 0.473633 156.928 0.473633C157.177 0.473633 157.528 0.59872 157.702 0.773851C157.952 0.973982 158.127 1.37426 158.127 1.69949C158.127 1.94968 158.004 2.29993 157.853 2.47502L146.923 15.334C146.723 15.5591 146.323 15.7592 146.048 15.7592ZM164.578 0.473633H182.587C183.236 0.473633 183.787 1.02403 183.787 1.69949C183.787 2.34994 183.236 2.90032 182.587 2.90032H165.804V13.3325H182.587C183.236 13.3325 183.787 13.8831 183.787 14.5584C183.787 15.2089 183.236 15.7592 182.587 15.7592H164.578C163.903 15.7592 163.378 15.2089 163.378 14.5584V1.69949C163.378 1.02403 163.903 0.473633 164.578 0.473633ZM169.656 6.90309H181.286C181.961 6.90309 182.511 7.45347 182.511 8.10395V8.12899C182.511 8.7794 181.961 9.32978 181.286 9.32978H169.656C168.981 9.32978 168.456 8.7794 168.456 8.12899V8.10395C168.456 7.45347 168.981 6.90309 169.656 6.90309ZM190.23 0.473633H206.287C208.738 0.473633 210.714 2.47502 210.714 4.90164C210.714 7.32846 208.738 9.32978 206.287 9.32978H203.885L210.19 13.5328C210.49 13.7329 210.714 14.1832 210.714 14.5584C210.714 14.7586 210.639 15.0588 210.514 15.2089C210.314 15.5091 209.863 15.7592 209.514 15.7592C209.313 15.7592 209.013 15.6593 208.839 15.5591L199.509 9.32978H191.456V14.5584C191.456 15.2089 190.906 15.7592 190.23 15.7592C189.556 15.7592 189.03 15.2089 189.03 14.5584V8.12899C189.03 7.45347 189.556 6.90309 190.23 6.90309H199.86H206.287C207.412 6.90309 208.289 6.02751 208.289 4.90164C208.289 3.77591 207.412 2.90032 206.287 2.90032H190.23C189.556 2.90032 189.03 2.34994 189.03 1.69949C189.03 1.02403 189.556 0.473633 190.23 0.473633ZM220.378 0.473633H235.184C235.834 0.473633 236.384 1.02403 236.384 1.69949C236.384 2.34994 235.834 2.90032 235.184 2.90032H220.378C219.278 2.90032 218.401 3.77591 218.401 4.90164C218.401 6.02751 219.278 6.90309 220.378 6.90309H233.258C235.685 6.90309 237.66 8.90454 237.66 11.3312C237.66 13.7579 235.685 15.7592 233.258 15.7592H217.176C216.5 15.7592 215.975 15.2089 215.975 14.5584C215.975 13.8831 216.5 13.3325 217.176 13.3325H233.258C234.359 13.3325 235.234 12.457 235.234 11.3312C235.234 10.2054 234.359 9.32978 233.258 9.32978H220.378C217.952 9.32978 215.975 7.32846 215.975 4.90164C215.975 2.47502 217.952 0.473633 220.378 0.473633ZM244.122 0.473633H262.131C262.781 0.473633 263.331 1.02403 263.331 1.69949C263.331 2.34994 262.781 2.90032 262.131 2.90032H245.348V13.3325H262.131C262.781 13.3325 263.331 13.8831 263.331 14.5584C263.331 15.2089 262.781 15.7592 262.131 15.7592H244.122C243.447 15.7592 242.922 15.2089 242.922 14.5584V1.69949C242.922 1.02403 243.447 0.473633 244.122 0.473633ZM249.2 6.90309H260.83C261.505 6.90309 262.055 7.45347 262.055 8.10395V8.12899C262.055 8.7794 261.505 9.32978 260.83 9.32978H249.2C248.525 9.32978 248 8.7794 248 8.12899V8.10395C248 7.45347 248.525 6.90309 249.2 6.90309Z" fill="white"/>
</svg>
